<?xml version="1.0" encoding="UTF-8"?>
<!DOCTYPE svg PUBLIC "-//W3C//DTD SVG 1.1//EN" "http://www.w3.org/Graphics/SVG/1.1/DTD/svg11.dtd">
<svg xmlns="http://www.w3.org/2000/svg" version="1.1" width="244px" height="256px" style="shape-rendering:geometricPrecision; text-rendering:geometricPrecision; image-rendering:optimizeQuality; fill-rule:evenodd; clip-rule:evenodd" xmlns:xlink="http://www.w3.org/1999/xlink">
<g><path style="opacity:1" fill="#262624" d="M 146.5,8.5 C 143.167,8.5 139.833,8.5 136.5,8.5C 137.694,7.22275 139.36,6.55608 141.5,6.5C 143.64,6.55608 145.306,7.22275 146.5,8.5 Z"/></g>
<g><path style="opacity:1" fill="#a5c638" d="M 183.5,43.5 C 185.246,45.2516 187.246,46.5849 189.5,47.5C 189.5,48.1667 189.5,48.8333 189.5,49.5C 182.858,45.8908 176.191,45.8908 169.5,49.5C 169.327,53.1704 170.993,55.6704 174.5,57C 173.552,57.4828 172.552,57.6495 171.5,57.5C 169.608,56.2983 167.774,54.965 166,53.5C 164.805,48.3448 163.138,43.3448 161,38.5C 156.061,30.5284 148.895,27.0284 139.5,28C 133.869,30.9726 127.869,33.1392 121.5,34.5C 114.971,34.4432 109.304,32.2765 104.5,28C 102.19,27.5034 99.8568,27.3367 97.5,27.5C 94.5274,26.9159 91.5274,26.2492 88.5,25.5C 87.2299,24.7124 86.2299,23.7124 85.5,22.5C 88.2571,19.8781 90.9238,17.0448 93.5,14C 96.8742,13.479 99.8742,12.1457 102.5,10C 104.81,9.50335 107.143,9.33669 109.5,9.5C 110.014,11.6984 111.014,13.6984 112.5,15.5C 118.319,18.773 124.319,19.6063 130.5,18C 132.754,17.3763 134.421,16.043 135.5,14C 138.833,13.3333 142.167,13.3333 145.5,14C 147.018,15.848 148.851,17.348 151,18.5C 152.878,24.2189 156.711,27.5522 162.5,28.5C 167.748,27.0269 173.082,26.5269 178.5,27C 180.049,28.214 181.215,29.714 182,31.5C 182.176,35.6877 182.676,39.6877 183.5,43.5 Z"/></g>
<g><path style="opacity:1" fill="#a19f79" d="M 90.5,8.5 C 89.5,11.1667 88.5,13.8333 87.5,16.5C 86.8333,17.5 86.1667,18.5 85.5,19.5C 83.7356,20.326 82.4023,21.6593 81.5,23.5C 79.9519,23.8212 79.2852,24.8212 79.5,26.5C 79.5,26.8333 79.5,27.1667 79.5,27.5C 75.2315,26.6274 70.8982,26.2941 66.5,26.5C 66.5,25.1667 67.1667,24.5 68.5,24.5C 71.1667,24.5 73.8333,24.5 76.5,24.5C 76.5,23.1667 76.5,21.8333 76.5,20.5C 77.8333,20.5 79.1667,20.5 80.5,20.5C 80.238,19.0222 80.5713,17.6888 81.5,16.5C 84.2424,13.4172 87.2424,10.7506 90.5,8.5 Z"/></g>
<g><path style="opacity:1" fill="#b8c68f" d="M 136.5,8.5 C 139.833,8.5 143.167,8.5 146.5,8.5C 153.189,10.8598 157.523,15.5265 159.5,22.5C 160.328,23.4147 161.328,24.0814 162.5,24.5C 166.646,22.5626 170.979,21.2293 175.5,20.5C 179.377,21.4086 183.044,22.7419 186.5,24.5C 188.098,30.3599 188.765,36.3599 188.5,42.5C 193.78,45.1401 199.114,47.8068 204.5,50.5C 204.5,51.8333 205.167,52.5 206.5,52.5C 209.082,52.0254 211.082,52.6921 212.5,54.5C 209.592,55.5691 206.592,55.7358 203.5,55C 198.756,52.4981 194.089,49.9981 189.5,47.5C 187.246,46.5849 185.246,45.2516 183.5,43.5C 184.775,38.1805 184.775,32.8471 183.5,27.5C 180.605,25.8035 177.439,24.8035 174,24.5C 171.109,24.2596 168.609,25.0929 166.5,27C 164.167,27.6667 161.833,27.6667 159.5,27C 155.762,21.9772 151.762,17.1439 147.5,12.5C 142.869,11.3384 138.202,11.1717 133.5,12C 125.066,17.5299 117.732,16.3632 111.5,8.5C 107.167,7.16667 102.833,7.16667 98.5,8.5C 94.1407,10.2929 90.474,12.9595 87.5,16.5C 88.5,13.8333 89.5,11.1667 90.5,8.5C 101.276,2.4317 111.276,3.4317 120.5,11.5C 121.833,11.8333 123.167,12.1667 124.5,12.5C 128.532,11.1448 132.532,9.81144 136.5,8.5 Z"/></g>
<g><path style="opacity:1" fill="#9cb74a" d="M 183.5,43.5 C 182.676,39.6877 182.176,35.6877 182,31.5C 181.215,29.714 180.049,28.214 178.5,27C 173.082,26.5269 167.748,27.0269 162.5,28.5C 156.711,27.5522 152.878,24.2189 151,18.5C 148.851,17.348 147.018,15.848 145.5,14C 142.167,13.3333 138.833,13.3333 135.5,14C 134.421,16.043 132.754,17.3763 130.5,18C 124.319,19.6063 118.319,18.773 112.5,15.5C 111.014,13.6984 110.014,11.6984 109.5,9.5C 107.143,9.33669 104.81,9.50335 102.5,10C 99.8742,12.1457 96.8742,13.479 93.5,14C 90.9238,17.0448 88.2571,19.8781 85.5,22.5C 84.375,21.6522 84.375,20.6522 85.5,19.5C 86.1667,18.5 86.8333,17.5 87.5,16.5C 90.474,12.9595 94.1407,10.2929 98.5,8.5C 102.833,7.16667 107.167,7.16667 111.5,8.5C 117.732,16.3632 125.066,17.5299 133.5,12C 138.202,11.1717 142.869,11.3384 147.5,12.5C 151.762,17.1439 155.762,21.9772 159.5,27C 161.833,27.6667 164.167,27.6667 166.5,27C 168.609,25.0929 171.109,24.2596 174,24.5C 177.439,24.8035 180.605,25.8035 183.5,27.5C 184.775,32.8471 184.775,38.1805 183.5,43.5 Z"/></g>
<g><path style="opacity:1" fill="#2a341d" d="M 50.5,26.5 C 50.5,27.8333 50.5,29.1667 50.5,30.5C 47.8333,30.5 45.1667,30.5 42.5,30.5C 44.9255,28.9494 47.5921,27.616 50.5,26.5 Z"/></g>
<g><path style="opacity:1" fill="#c2993b" d="M 79.5,26.5 C 83.2034,30.2023 86.5367,34.2023 89.5,38.5C 88.1667,37.5 86.8333,36.5 85.5,35.5C 84.1394,33.4727 82.4727,31.806 80.5,30.5C 80.4431,29.391 80.1098,28.391 79.5,27.5C 79.5,27.1667 79.5,26.8333 79.5,26.5 Z"/></g>
<g><path style="opacity:1" fill="#9fb84d" d="M 65.5,26.5 C 65.8333,26.5 66.1667,26.5 66.5,26.5C 70.8982,26.2941 75.2315,26.6274 79.5,27.5C 80.1098,28.391 80.4431,29.391 80.5,30.5C 73.1162,28.8137 66.9495,30.8137 62,36.5C 61.6667,38.5 61.3333,40.5 61,42.5C 60.6174,43.056 60.1174,43.3893 59.5,43.5C 55.4809,43.3542 51.4809,43.0209 47.5,42.5C 50.9619,41.5184 54.6286,41.185 58.5,41.5C 59.0119,35.4839 61.3452,30.4839 65.5,26.5 Z"/></g>
<g><path style="opacity:1" fill="#b7601d" d="M 81.5,23.5 C 83.9589,25.7792 86.6256,27.9458 89.5,30C 91.0468,30.3334 92.3801,29.8334 93.5,28.5C 94.5223,28.8555 95.189,29.5222 95.5,30.5C 95.9422,34.1545 96.2756,37.8212 96.5,41.5C 93.562,41.7267 91.2287,40.7267 89.5,38.5C 86.5367,34.2023 83.2034,30.2023 79.5,26.5C 79.2852,24.8212 79.9519,23.8212 81.5,23.5 Z"/></g>
<g><path style="opacity:1" fill="#c9bc4d" d="M 85.5,19.5 C 84.375,20.6522 84.375,21.6522 85.5,22.5C 86.2299,23.7124 87.2299,24.7124 88.5,25.5C 91.5274,26.2492 94.5274,26.9159 97.5,27.5C 99.4086,34.2491 101.409,40.9157 103.5,47.5C 102.833,47.8333 102.167,48.1667 101.5,48.5C 100.883,48.3893 100.383,48.056 100,47.5C 99.7273,42.7709 99.0607,38.1042 98,33.5C 97.1482,32.4293 96.3149,31.4293 95.5,30.5C 95.189,29.5222 94.5223,28.8555 93.5,28.5C 92.3801,29.8334 91.0468,30.3334 89.5,30C 86.6256,27.9458 83.9589,25.7792 81.5,23.5C 82.4023,21.6593 83.7356,20.326 85.5,19.5 Z"/></g>
<g><path style="opacity:1" fill="#dadf65" d="M 171.5,58.5 C 172.833,58.8333 174.167,59.1667 175.5,59.5C 181.186,60.5193 184.519,63.8526 185.5,69.5C 181.547,69.7617 177.88,70.7617 174.5,72.5C 171.915,70.2905 169.915,67.6239 168.5,64.5C 168.95,60.776 167.283,58.6093 163.5,58C 159.548,58.4339 155.548,58.4339 151.5,58C 147.608,56.3599 143.608,55.0265 139.5,54C 138.167,53 136.833,52 135.5,51C 132.305,50.8195 129.305,50.3195 126.5,49.5C 133.128,47.4607 139.794,46.1274 146.5,45.5C 145.052,44.6461 143.719,43.6461 142.5,42.5C 137.503,42.8973 132.503,43.8973 127.5,45.5C 127.36,43.8762 128.027,42.7096 129.5,42C 128.742,40.6361 129.242,39.4695 131,38.5C 131.333,38.8333 131.667,39.1667 132,39.5C 134.061,36.872 136.561,36.2054 139.5,37.5C 141.092,35.4381 142.925,35.1048 145,36.5C 146.126,35.0564 147.626,34.3898 149.5,34.5C 152.179,34.9357 154.845,35.4357 157.5,36C 157.167,36.3333 156.833,36.6667 156.5,37C 158.403,40.8703 160.403,44.7036 162.5,48.5C 161.319,50.198 161.319,51.8647 162.5,53.5C 165.279,55.624 168.279,57.2907 171.5,58.5 Z"/></g>
<g><path style="opacity:1" fill="#d5e060" d="M 97.5,27.5 C 99.8568,27.3367 102.19,27.5034 104.5,28C 109.304,32.2765 114.971,34.4432 121.5,34.5C 127.869,33.1392 133.869,30.9726 139.5,28C 148.895,27.0284 156.061,30.5284 161,38.5C 163.138,43.3448 164.805,48.3448 166,53.5C 167.774,54.965 169.608,56.2983 171.5,57.5C 171.5,57.8333 171.5,58.1667 171.5,58.5C 168.279,57.2907 165.279,55.624 162.5,53.5C 161.319,51.8647 161.319,50.198 162.5,48.5C 160.403,44.7036 158.403,40.8703 156.5,37C 156.833,36.6667 157.167,36.3333 157.5,36C 154.845,35.4357 152.179,34.9357 149.5,34.5C 147.626,34.3898 146.126,35.0564 145,36.5C 142.925,35.1048 141.092,35.4381 139.5,37.5C 136.561,36.2054 134.061,36.872 132,39.5C 131.667,39.1667 131.333,38.8333 131,38.5C 129.242,39.4695 128.742,40.6361 129.5,42C 128.027,42.7096 127.36,43.8762 127.5,45.5C 132.503,43.8973 137.503,42.8973 142.5,42.5C 143.719,43.6461 145.052,44.6461 146.5,45.5C 139.794,46.1274 133.128,47.4607 126.5,49.5C 118.772,48.9879 111.105,48.3213 103.5,47.5C 101.409,40.9157 99.4086,34.2491 97.5,27.5 Z"/></g>
<g><path style="opacity:1" fill="#6b755b" d="M 56.5,37.5 C 53.0381,38.4816 49.3714,38.815 45.5,38.5C 45.6107,37.8826 45.944,37.3826 46.5,37C 50.0267,36.1925 53.3601,36.3592 56.5,37.5 Z"/></g>
<g><path style="opacity:1" fill="#bcca83" d="M 65.5,26.5 C 61.3452,30.4839 59.0119,35.4839 58.5,41.5C 54.6286,41.185 50.9619,41.5184 47.5,42.5C 45.1469,44.1013 42.9802,46.1013 41,48.5C 39.9837,52.9955 37.4837,55.9955 33.5,57.5C 33.2785,59.6636 32.2785,61.3303 30.5,62.5C 27.2158,62.7233 24.0491,63.3899 21,64.5C 20.4112,67.8972 19.0779,70.8972 17,73.5C 16.8261,78.6835 16.3261,83.6835 15.5,88.5C 15.5,84.8333 15.5,81.1667 15.5,77.5C 14.5,77.5 13.5,77.5 12.5,77.5C 12.5,77.1667 12.5,76.8333 12.5,76.5C 14.369,74.3647 15.0356,71.6981 14.5,68.5C 14.5,67.8333 14.5,67.1667 14.5,66.5C 15.8333,66.5 16.5,65.8333 16.5,64.5C 16.5,63.1667 17.1667,62.5 18.5,62.5C 19.8333,62.5 20.5,61.8333 20.5,60.5C 24.9992,59.2396 28.9992,57.2396 32.5,54.5C 33.675,54.719 34.675,54.3857 35.5,53.5C 38.5285,48.1678 41.8618,43.1678 45.5,38.5C 49.3714,38.815 53.0381,38.4816 56.5,37.5C 57.9691,34.5322 59.3025,31.3656 60.5,28C 60.1667,27.6667 59.8333,27.3333 59.5,27C 61.5005,27.7925 63.5005,27.6259 65.5,26.5 Z"/></g>
<g><path style="opacity:1" fill="#7a8071" d="M 34.5,38.5 C 34.0807,41.3245 35.0807,43.4912 37.5,45C 37.0257,46.7286 36.0257,47.8953 34.5,48.5C 33.5367,46.6673 32.87,44.6673 32.5,42.5C 32.5854,40.6672 33.2521,39.3339 34.5,38.5 Z"/></g>
<g><path style="opacity:1" fill="#bfc99f" d="M 68.5,24.5 C 67.1667,24.5 66.5,25.1667 66.5,26.5C 66.1667,26.5 65.8333,26.5 65.5,26.5C 63.5005,27.6259 61.5005,27.7925 59.5,27C 59.8333,27.3333 60.1667,27.6667 60.5,28C 59.3025,31.3656 57.9691,34.5322 56.5,37.5C 53.3601,36.3592 50.0267,36.1925 46.5,37C 45.944,37.3826 45.6107,37.8826 45.5,38.5C 41.8618,43.1678 38.5285,48.1678 35.5,53.5C 34.675,54.3857 33.675,54.719 32.5,54.5C 32.6138,52.2821 33.2804,50.2821 34.5,48.5C 36.0257,47.8953 37.0257,46.7286 37.5,45C 35.0807,43.4912 34.0807,41.3245 34.5,38.5C 34.238,37.0222 34.5713,35.6888 35.5,34.5C 37.7254,32.89 40.0587,31.5566 42.5,30.5C 45.1667,30.5 47.8333,30.5 50.5,30.5C 50.5,29.1667 50.5,27.8333 50.5,26.5C 50.7214,25.2652 51.3881,24.2652 52.5,23.5C 56.0477,21.5593 59.7143,19.8926 63.5,18.5C 66.9982,18.9966 68.6649,20.9966 68.5,24.5 Z"/></g>
<g><path style="opacity:1" fill="#d6e060" d="M 85.5,35.5 C 85.8567,37.5891 86.5233,39.5891 87.5,41.5C 89.4111,44.6183 91.4111,46.9516 93.5,48.5C 88.3881,50.1335 83.3881,51.9668 78.5,54C 76.4311,54.3242 76.0977,55.1575 77.5,56.5C 76.3333,56.8333 75.1667,57.1667 74,57.5C 71.1299,56.9811 68.2966,56.3144 65.5,55.5C 63.0912,56.0636 60.7579,56.8969 58.5,58C 56.4808,61.0555 54.6475,64.2221 53,67.5C 53.7711,75.9804 51.1044,83.3138 45,89.5C 43.2513,88.701 41.918,89.3676 41,91.5C 40.6667,91.1667 40.3333,90.8333 40,90.5C 39.8762,92.9357 40.3762,95.269 41.5,97.5C 37.8296,97.6734 35.3296,96.0067 34,92.5C 33.5012,88.5138 33.3345,84.5138 33.5,80.5C 37.5745,73.8993 43.5745,70.2327 51.5,69.5C 53.6191,61.5517 57.6191,54.7184 63.5,49C 68.8938,47.9363 74.2271,46.7696 79.5,45.5C 80.6693,41.665 82.6693,38.3317 85.5,35.5 Z"/></g>
<g><path style="opacity:1" fill="#c49031" d="M 95.5,30.5 C 96.3149,31.4293 97.1482,32.4293 98,33.5C 99.0607,38.1042 99.7273,42.7709 100,47.5C 100.383,48.056 100.883,48.3893 101.5,48.5C 100.817,50.1765 99.4832,50.8432 97.5,50.5C 96.8333,48.5 96.1667,46.5 95.5,44.5C 91.8333,44.1667 89.8333,42.1667 89.5,38.5C 91.2287,40.7267 93.562,41.7267 96.5,41.5C 96.2756,37.8212 95.9422,34.1545 95.5,30.5 Z"/></g>
<g><path style="opacity:1" fill="#e1b28d" d="M 168.5,64.5 C 169.356,68.5701 170.523,72.5701 172,76.5C 174.1,79.0507 175.933,81.7173 177.5,84.5C 175.122,82.448 172.789,80.448 170.5,78.5C 170.371,76.7839 170.038,75.1172 169.5,73.5C 167.421,70.8796 166.087,67.8796 165.5,64.5C 156.278,63.9274 147.611,61.594 139.5,57.5C 136.486,56.8215 133.82,55.3215 131.5,53C 120.833,52.3333 110.167,52.3333 99.5,53C 96.0433,54.7435 92.3767,55.7435 88.5,56C 85.1196,56.9344 82.1196,58.6011 79.5,61C 74.8333,61.3333 70.1667,61.6667 65.5,62C 64.1667,62.6667 62.8333,63.3333 61.5,64C 60.5442,67.3936 60.2108,70.8936 60.5,74.5C 60.3775,77.2921 59.0442,79.2921 56.5,80.5C 57.1643,75.5318 57.6643,70.5318 58,65.5C 59.8783,63.9571 61.3783,62.1238 62.5,60C 68.1667,59.6667 73.8333,59.3333 79.5,59C 84.3849,55.7027 89.7183,53.3694 95.5,52C 108.18,51.1674 120.846,51.334 133.5,52.5C 138.013,54.6772 142.68,56.6772 147.5,58.5C 152.802,59.3295 158.136,59.8295 163.5,60C 165.062,61.6336 166.729,63.1336 168.5,64.5 Z"/></g>
<g><path style="opacity:1" fill="#222606" d="M 204.5,50.5 C 205.833,50.5 206.5,51.1667 206.5,52.5C 206.5,51.1667 205.833,50.5 204.5,50.5 Z"/></g>
<g><path style="opacity:1" fill="#dbc779" d="M 103.5,47.5 C 111.105,48.3213 118.772,48.9879 126.5,49.5C 129.305,50.3195 132.305,50.8195 135.5,51C 136.833,52 138.167,53 139.5,54C 143.608,55.0265 147.608,56.3599 151.5,58C 155.548,58.4339 159.548,58.4339 163.5,58C 167.283,58.6093 168.95,60.776 168.5,64.5C 166.729,63.1336 165.062,61.6336 163.5,60C 158.136,59.8295 152.802,59.3295 147.5,58.5C 142.68,56.6772 138.013,54.6772 133.5,52.5C 120.846,51.334 108.18,51.1674 95.5,52C 89.7183,53.3694 84.3849,55.7027 79.5,59C 73.8333,59.3333 68.1667,59.6667 62.5,60C 61.3783,62.1238 59.8783,63.9571 58,65.5C 57.6643,70.5318 57.1643,75.5318 56.5,80.5C 55.8333,80.5 55.1667,80.5 54.5,80.5C 55.9009,74.6022 56.7342,68.6022 57,62.5C 59.5286,59.9685 62.5286,58.3018 66,57.5C 70.1378,58.4974 74.3045,58.664 78.5,58C 84.1035,53.8725 90.4369,51.3725 97.5,50.5C 99.4832,50.8432 100.817,50.1765 101.5,48.5C 102.167,48.1667 102.833,47.8333 103.5,47.5 Z"/></g>
<g><path style="opacity:1" fill="#f3aeb3" d="M 139.5,57.5 C 147.611,61.594 156.278,63.9274 165.5,64.5C 166.087,67.8796 167.421,70.8796 169.5,73.5C 168.167,73.5 166.833,73.5 165.5,73.5C 164.193,72.1984 164.193,70.865 165.5,69.5C 163.476,67.6419 161.309,65.9752 159,64.5C 155.545,65.2874 152.045,65.9541 148.5,66.5C 149.706,65.1196 149.373,63.9529 147.5,63C 143.227,61.3137 138.894,61.3137 134.5,63C 133.2,66.5265 130.7,68.6931 127,69.5C 121.983,67.7858 116.817,67.1192 111.5,67.5C 111.5,68.5 111.5,69.5 111.5,70.5C 109.409,70.6816 107.409,70.3482 105.5,69.5C 103.941,70.4465 102.274,71.1132 100.5,71.5C 95.5944,70.1214 90.5944,69.2881 85.5,69C 83.9004,67.392 82.567,65.5586 81.5,63.5C 79.4706,63.8028 77.4706,64.1362 75.5,64.5C 74.6236,64.6309 73.9569,64.2975 73.5,63.5C 76.1071,62.6816 78.7737,62.1816 81.5,62C 85.1093,59.6441 88.9426,57.8108 93,56.5C 96.3547,60.0261 100.021,60.3594 104,57.5C 104.695,63.4517 106.028,63.1183 108,56.5C 109.255,55.7894 110.421,54.956 111.5,54C 118.903,52.7693 125.903,53.7693 132.5,57C 134.81,57.4966 137.143,57.6633 139.5,57.5 Z"/></g>
<g><path style="opacity:1" fill="#a5c433" d="M 80.5,30.5 C 82.4727,31.806 84.1394,33.4727 85.5,35.5C 82.6693,38.3317 80.6693,41.665 79.5,45.5C 74.2271,46.7696 68.8938,47.9363 63.5,49C 57.6191,54.7184 53.6191,61.5517 51.5,69.5C 43.5745,70.2327 37.5745,73.8993 33.5,80.5C 30.4774,82.5422 29.144,85.2088 29.5,88.5C 30.7726,92.211 32.4393,95.711 34.5,99C 33.7576,101.905 32.091,104.072 29.5,105.5C 27.9456,101.803 26.6122,97.9697 25.5,94C 25.8439,87.069 28.5106,80.9023 33.5,75.5C 37.273,71.8847 41.4396,68.8847 46,66.5C 46.3775,57.0347 51.2108,50.3681 60.5,46.5C 59.8728,45.5832 59.5394,44.5832 59.5,43.5C 60.1174,43.3893 60.6174,43.056 61,42.5C 61.3333,40.5 61.6667,38.5 62,36.5C 66.9495,30.8137 73.1162,28.8137 80.5,30.5 Z"/></g>
<g><path style="opacity:1" fill="#1d1d1d" d="M 218.5,54.5 C 219.833,54.5 220.5,55.1667 220.5,56.5C 220.5,55.1667 219.833,54.5 218.5,54.5 Z"/></g>
<g><path style="opacity:1" fill="#bcd843" d="M 189.5,49.5 C 193.555,52.2636 197.888,54.7636 202.5,57C 210.696,57.105 217.696,59.9384 223.5,65.5C 222.019,72.0928 221.519,78.7595 222,85.5C 222.333,86.8333 222.667,88.1667 223,89.5C 225.965,91.1463 228.632,93.1463 231,95.5C 231.667,99.5 231.667,103.5 231,107.5C 228.786,109.99 227.619,112.99 227.5,116.5C 227.699,120.63 228.533,124.63 230,128.5C 230.667,132.833 230.667,137.167 230,141.5C 228.008,142.328 226.508,143.661 225.5,145.5C 224.167,146.5 222.833,147.5 221.5,148.5C 219.344,146.668 218.01,144.334 217.5,141.5C 218.834,135.887 220.167,130.22 221.5,124.5C 220.828,122.84 219.828,121.507 218.5,120.5C 216.427,114.574 212.593,109.908 207,106.5C 205.991,104.975 205.491,103.308 205.5,101.5C 206.117,101.611 206.617,101.944 207,102.5C 209.3,92.0307 206.467,83.364 198.5,76.5C 196.367,65.4865 189.867,59.1532 179,57.5C 177.319,57.6083 176.152,58.2749 175.5,59.5C 174.167,59.1667 172.833,58.8333 171.5,58.5C 171.5,58.1667 171.5,57.8333 171.5,57.5C 172.552,57.6495 173.552,57.4828 174.5,57C 170.993,55.6704 169.327,53.1704 169.5,49.5C 176.191,45.8908 182.858,45.8908 189.5,49.5 Z"/></g>
<g><path style="opacity:1" fill="#abc060" d="M 189.5,47.5 C 194.089,49.9981 198.756,52.4981 203.5,55C 206.592,55.7358 209.592,55.5691 212.5,54.5C 212.5,55.5 212.5,56.5 212.5,57.5C 213.873,57.3433 215.207,57.51 216.5,58C 218.234,59.7342 220.234,61.0676 222.5,62C 223.337,63.0113 223.67,64.1779 223.5,65.5C 217.696,59.9384 210.696,57.105 202.5,57C 197.888,54.7636 193.555,52.2636 189.5,49.5C 189.5,48.8333 189.5,48.1667 189.5,47.5 Z"/></g>
<g><path style="opacity:1" fill="#2b2b27" d="M 20.5,60.5 C 20.5,61.8333 19.8333,62.5 18.5,62.5C 18.5,61.1667 19.1667,60.5 20.5,60.5 Z"/></g>
<g><path style="opacity:1" fill="#efa8ae" d="M 148.5,66.5 C 147.699,68.0418 147.366,69.7085 147.5,71.5C 146.325,71.281 145.325,71.6143 144.5,72.5C 147.254,74.9976 146.92,76.9976 143.5,78.5C 141.833,77.1667 140.167,77.1667 138.5,78.5C 135.938,74.5261 132.604,73.6927 128.5,76C 127.167,77.6667 127.167,79.3333 128.5,81C 127.833,82 127.167,83 126.5,84C 121.515,83.0047 116.515,81.838 111.5,80.5C 111.741,83.0336 110.741,84.7002 108.5,85.5C 106.833,85.5 105.167,85.5 103.5,85.5C 103.5,83.8333 103.5,82.1667 103.5,80.5C 102.167,80.5 100.833,80.5 99.5,80.5C 100.036,83.6646 99.2031,86.3312 97,88.5C 96.6667,87.5 96.3333,86.5 96,85.5C 95.7489,87.433 95.2489,89.2663 94.5,91C 90.3244,91.1748 85.991,91.3414 81.5,91.5C 81.5,89.8333 81.5,88.1667 81.5,86.5C 80.0413,86.4326 78.7079,86.7659 77.5,87.5C 78.1223,85.665 79.4556,84.4983 81.5,84C 86.1913,83.2281 90.8579,82.3948 95.5,81.5C 95.5,80.5 95.5,79.5 95.5,78.5C 90.5,79.5 88.5,77.5 89.5,72.5C 88.1266,72.6567 86.7932,72.49 85.5,72C 83.8998,70.185 81.8998,69.0183 79.5,68.5C 78.1311,70.124 76.4645,70.624 74.5,70C 74.67,68.4305 75.0033,66.5972 75.5,64.5C 77.4706,64.1362 79.4706,63.8028 81.5,63.5C 82.567,65.5586 83.9004,67.392 85.5,69C 90.5944,69.2881 95.5944,70.1214 100.5,71.5C 102.274,71.1132 103.941,70.4465 105.5,69.5C 107.409,70.3482 109.409,70.6816 111.5,70.5C 111.5,69.5 111.5,68.5 111.5,67.5C 116.817,67.1192 121.983,67.7858 127,69.5C 130.7,68.6931 133.2,66.5265 134.5,63C 138.894,61.3137 143.227,61.3137 147.5,63C 149.373,63.9529 149.706,65.1196 148.5,66.5 Z"/></g>
<g><path style="opacity:1" fill="#175a11" d="M 16.5,64.5 C 16.5,65.8333 15.8333,66.5 14.5,66.5C 14.5,65.1667 15.1667,64.5 16.5,64.5 Z"/></g>
<g><path style="opacity:1" fill="#f6d6d6" d="M 65.5,77.5 C 63.7986,76.7886 62.7986,75.4553 62.5,73.5C 61.9026,69.3609 63.4026,66.3609 67,64.5C 70.1275,65.9295 71.4608,68.2628 71,71.5C 69.3662,73.8369 67.5329,75.8369 65.5,77.5 Z"/></g>
<g><path style="opacity:1" fill="#d7d465" d="M 85.5,35.5 C 86.8333,36.5 88.1667,37.5 89.5,38.5C 89.8333,42.1667 91.8333,44.1667 95.5,44.5C 96.1667,46.5 96.8333,48.5 97.5,50.5C 90.4369,51.3725 84.1035,53.8725 78.5,58C 74.3045,58.664 70.1378,58.4974 66,57.5C 62.5286,58.3018 59.5286,59.9685 57,62.5C 56.7342,68.6022 55.9009,74.6022 54.5,80.5C 52.3937,86.4654 49.5604,92.132 46,97.5C 43.7752,110.056 42.9418,122.722 43.5,135.5C 42.2426,123.617 42.2426,111.95 43.5,100.5C 43.4142,99.5041 43.7476,98.6708 44.5,98C 43.552,97.5172 42.552,97.3505 41.5,97.5C 40.3762,95.269 39.8762,92.9357 40,90.5C 40.3333,90.8333 40.6667,91.1667 41,91.5C 41.918,89.3676 43.2513,88.701 45,89.5C 51.1044,83.3138 53.7711,75.9804 53,67.5C 54.6475,64.2221 56.4808,61.0555 58.5,58C 60.7579,56.8969 63.0912,56.0636 65.5,55.5C 68.2966,56.3144 71.1299,56.9811 74,57.5C 75.1667,57.1667 76.3333,56.8333 77.5,56.5C 76.0977,55.1575 76.4311,54.3242 78.5,54C 83.3881,51.9668 88.3881,50.1335 93.5,48.5C 91.4111,46.9516 89.4111,44.6183 87.5,41.5C 86.5233,39.5891 85.8567,37.5891 85.5,35.5 Z"/></g>
<g><path style="opacity:1" fill="#eeafb1" d="M 139.5,57.5 C 137.143,57.6633 134.81,57.4966 132.5,57C 125.903,53.7693 118.903,52.7693 111.5,54C 110.421,54.956 109.255,55.7894 108,56.5C 106.028,63.1183 104.695,63.4517 104,57.5C 100.021,60.3594 96.3547,60.0261 93,56.5C 88.9426,57.8108 85.1093,59.6441 81.5,62C 78.7737,62.1816 76.1071,62.6816 73.5,63.5C 73.9569,64.2975 74.6236,64.6309 75.5,64.5C 75.0033,66.5972 74.67,68.4305 74.5,70C 76.4645,70.624 78.1311,70.124 79.5,68.5C 81.8998,69.0183 83.8998,70.185 85.5,72C 86.7932,72.49 88.1266,72.6567 89.5,72.5C 88.5,77.5 90.5,79.5 95.5,78.5C 95.5,79.5 95.5,80.5 95.5,81.5C 90.8579,82.3948 86.1913,83.2281 81.5,84C 79.4556,84.4983 78.1223,85.665 77.5,87.5C 75.0091,90.2801 72.6758,90.1134 70.5,87C 72.0468,86.6666 73.3801,87.1666 74.5,88.5C 75.7087,86.5855 77.042,84.7522 78.5,83C 78.1467,78.8751 76.6467,78.0417 74,80.5C 73.6458,78.1925 72.6458,77.8592 71,79.5C 68.9701,79.0463 67.1368,78.3796 65.5,77.5C 67.5329,75.8369 69.3662,73.8369 71,71.5C 71.4608,68.2628 70.1275,65.9295 67,64.5C 63.4026,66.3609 61.9026,69.3609 62.5,73.5C 61.8333,73.8333 61.1667,74.1667 60.5,74.5C 60.2108,70.8936 60.5442,67.3936 61.5,64C 62.8333,63.3333 64.1667,62.6667 65.5,62C 70.1667,61.6667 74.8333,61.3333 79.5,61C 82.1196,58.6011 85.1196,56.9344 88.5,56C 92.3767,55.7435 96.0433,54.7435 99.5,53C 110.167,52.3333 120.833,52.3333 131.5,53C 133.82,55.3215 136.486,56.8215 139.5,57.5 Z"/></g>
<g><path style="opacity:1" fill="#5e674a" d="M 14.5,68.5 C 15.0356,71.6981 14.369,74.3647 12.5,76.5C 11.9644,73.3019 12.631,70.6353 14.5,68.5 Z"/></g>
<g><path style="opacity:1" fill="#bbd844" d="M 47.5,42.5 C 51.4809,43.0209 55.4809,43.3542 59.5,43.5C 59.5394,44.5832 59.8728,45.5832 60.5,46.5C 51.2108,50.3681 46.3775,57.0347 46,66.5C 41.4396,68.8847 37.273,71.8847 33.5,75.5C 28.5106,80.9023 25.8439,87.069 25.5,94C 26.6122,97.9697 27.9456,101.803 29.5,105.5C 28.8865,107.283 27.7198,108.616 26,109.5C 25.5006,114.823 25.334,120.156 25.5,125.5C 25.8841,127.665 25.2174,129.332 23.5,130.5C 22.4474,125.39 20.1141,121.056 16.5,117.5C 16.5,116.833 16.1667,116.5 15.5,116.5C 12.9908,115.318 11.6574,113.318 11.5,110.5C 11.2378,103.155 13.0711,96.4884 17,90.5C 17.3333,85.5 17.6667,80.5 18,75.5C 20.2574,72.5619 21.424,69.2285 21.5,65.5C 24.855,65.3104 27.855,64.3104 30.5,62.5C 32.2785,61.3303 33.2785,59.6636 33.5,57.5C 37.4837,55.9955 39.9837,52.9955 41,48.5C 42.9802,46.1013 45.1469,44.1013 47.5,42.5 Z"/></g>
<g><path style="opacity:1" fill="#d3bc68" d="M 168.5,64.5 C 169.915,67.6239 171.915,70.2905 174.5,72.5C 174.557,73.609 174.89,74.609 175.5,75.5C 176.882,78.5264 178.215,81.5264 179.5,84.5C 178.833,84.5 178.167,84.5 177.5,84.5C 175.933,81.7173 174.1,79.0507 172,76.5C 170.523,72.5701 169.356,68.5701 168.5,64.5 Z"/></g>
<g><path style="opacity:1" fill="#c1cc99" d="M 212.5,54.5 C 214.5,54.5 216.5,54.5 218.5,54.5C 218.5,55.8333 219.167,56.5 220.5,56.5C 225.473,59.7513 228.473,64.418 229.5,70.5C 227.886,74.3626 226.886,78.3626 226.5,82.5C 226.5,83.8333 227.167,84.5 228.5,84.5C 228.5,85.8333 229.167,86.5 230.5,86.5C 230.5,87.8333 231.167,88.5 232.5,88.5C 232.833,90.5 233.167,92.5 233.5,94.5C 234.5,94.5 235.5,94.5 236.5,94.5C 236.5,95.8333 237.167,96.5 238.5,96.5C 238.813,99.2469 238.48,101.914 237.5,104.5C 236.19,108.757 234.523,112.757 232.5,116.5C 231.414,116.62 230.747,117.287 230.5,118.5C 230.747,119.713 231.414,120.38 232.5,120.5C 236.952,128.808 237.619,137.475 234.5,146.5C 233.167,146.5 232.5,147.167 232.5,148.5C 231.833,147.5 231.167,146.5 230.5,145.5C 231.608,142.124 232.275,138.624 232.5,135C 231.787,128.861 230.453,122.861 228.5,117C 229.841,113.816 231.341,110.649 233,107.5C 234.606,103.55 234.773,99.5501 233.5,95.5C 230.579,92.075 227.412,88.7417 224,85.5C 223.214,80.1898 223.714,75.0231 225.5,70C 225.693,67.9919 225.026,66.4919 223.5,65.5C 223.67,64.1779 223.337,63.0113 222.5,62C 220.234,61.0676 218.234,59.7342 216.5,58C 215.207,57.51 213.873,57.3433 212.5,57.5C 212.5,56.5 212.5,55.5 212.5,54.5 Z"/></g>
<g><path style="opacity:1" fill="#f1a2a7" d="M 165.5,73.5 C 164.735,74.6602 163.735,75.6602 162.5,76.5C 161.289,75.7261 161.289,74.8928 162.5,74C 159.667,74.0985 158.001,75.5985 157.5,78.5C 156.167,78.5 154.833,78.5 153.5,78.5C 149.828,78.1826 148.162,79.8493 148.5,83.5C 147.127,83.3433 145.793,83.51 144.5,84C 141.28,86.1029 138.28,88.4362 135.5,91C 133.19,91.4966 130.857,91.6633 128.5,91.5C 128.854,94.4206 127.854,96.7539 125.5,98.5C 121.571,101.198 117.404,101.864 113,100.5C 110.959,107.397 109.126,114.397 107.5,121.5C 108.675,121.281 109.675,121.614 110.5,122.5C 106.267,125.036 101.6,126.202 96.5,126C 95.2404,127.814 95.2404,129.647 96.5,131.5C 97.4287,130.311 97.762,128.978 97.5,127.5C 98.8333,127.5 100.167,127.5 101.5,127.5C 101.167,130.5 102.5,131.833 105.5,131.5C 105.501,127.748 107.167,126.748 110.5,128.5C 109.5,129.167 108.5,129.833 107.5,130.5C 109.14,133.722 111.807,135.056 115.5,134.5C 114.508,136.026 113.008,136.693 111,136.5C 108.801,136.039 106.634,135.873 104.5,136C 102.649,140.244 100.649,140.411 98.5,136.5C 96.6587,135.77 94.8254,135.103 93,134.5C 94.1313,132.023 93.6313,129.857 91.5,128C 85.4133,128.064 82.0799,125.231 81.5,119.5C 81.2011,117.396 81.5344,115.396 82.5,113.5C 84.0009,114.752 85.6675,115.752 87.5,116.5C 89.3842,110.487 87.7176,108.82 82.5,111.5C 78.9187,110.802 79.252,109.969 83.5,109C 81.6667,106.5 79.8333,104 78,101.5C 77.2681,99.2945 77.9348,97.6278 80,96.5C 82.4371,99.7632 85.6038,102.097 89.5,103.5C 90.5,103.167 91.1667,102.5 91.5,101.5C 90.4825,100.148 89.1492,99.1476 87.5,98.5C 87.9186,97.3279 88.5853,96.3279 89.5,95.5C 90.914,96.624 92.414,97.624 94,98.5C 95.1882,97.4366 95.6882,96.1033 95.5,94.5C 97.952,94.6236 99.952,95.6236 101.5,97.5C 103.447,96.723 105.28,95.723 107,94.5C 108.578,95.5472 110.078,95.5472 111.5,94.5C 108.973,93.7864 106.473,93.1197 104,92.5C 103.333,91.1667 103.333,89.8333 104,88.5C 105.652,87.6006 107.152,86.6006 108.5,85.5C 110.741,84.7002 111.741,83.0336 111.5,80.5C 116.515,81.838 121.515,83.0047 126.5,84C 127.167,83 127.833,82 128.5,81C 127.167,79.3333 127.167,77.6667 128.5,76C 132.604,73.6927 135.938,74.5261 138.5,78.5C 140.167,77.1667 141.833,77.1667 143.5,78.5C 146.92,76.9976 147.254,74.9976 144.5,72.5C 145.325,71.6143 146.325,71.281 147.5,71.5C 147.366,69.7085 147.699,68.0418 148.5,66.5C 152.045,65.9541 155.545,65.2874 159,64.5C 161.309,65.9752 163.476,67.6419 165.5,69.5C 164.193,70.865 164.193,72.1984 165.5,73.5 Z"/></g>
<g><path style="opacity:1" fill="#a8c134" d="M 205.5,101.5 C 206.77,89.2803 202.104,80.1136 191.5,74C 185.92,73.0043 180.587,73.5043 175.5,75.5C 174.89,74.609 174.557,73.609 174.5,72.5C 177.88,70.7617 181.547,69.7617 185.5,69.5C 184.519,63.8526 181.186,60.5193 175.5,59.5C 176.152,58.2749 177.319,57.6083 179,57.5C 189.867,59.1532 196.367,65.4865 198.5,76.5C 206.467,83.364 209.3,92.0307 207,102.5C 206.617,101.944 206.117,101.611 205.5,101.5 Z"/></g>
<g><path style="opacity:1" fill="#ee979b" d="M 165.5,73.5 C 166.833,73.5 168.167,73.5 169.5,73.5C 170.038,75.1172 170.371,76.7839 170.5,78.5C 169.105,80.8473 169.272,83.1806 171,85.5C 171.284,83.1144 172.284,82.4477 174,83.5C 175.63,85.231 176.797,87.231 177.5,89.5C 175.547,93.2522 176.547,95.5855 180.5,96.5C 180.33,97.8221 180.663,98.9887 181.5,100C 179.367,105.106 176.367,109.606 172.5,113.5C 171.341,109.878 171.175,106.211 172,102.5C 173.509,101.91 175.009,101.244 176.5,100.5C 175.77,97.8908 175.27,95.2241 175,92.5C 173.644,91.6198 172.144,91.2865 170.5,91.5C 171.218,95.9035 170.051,99.5702 167,102.5C 166.073,99.6482 164.406,97.3149 162,95.5C 160.133,96.3767 158.966,97.8767 158.5,100C 158.957,100.414 159.291,100.914 159.5,101.5C 157.604,102.466 155.604,102.799 153.5,102.5C 153.918,105.765 155.085,108.765 157,111.5C 158.581,109.425 160.415,109.425 162.5,111.5C 163.04,112.748 163.707,113.915 164.5,115C 163.294,116.018 163.627,116.518 165.5,116.5C 166.672,116.081 167.672,115.415 168.5,114.5C 170.724,115.325 172.724,115.659 174.5,115.5C 172.694,117.089 171.361,119.089 170.5,121.5C 167.831,117.961 164.665,117.961 161,121.5C 156.373,119.374 152.873,116.041 150.5,111.5C 147.971,110.428 145.804,108.761 144,106.5C 143.439,107.022 142.772,107.355 142,107.5C 139.846,106.726 137.679,106.059 135.5,105.5C 136.658,104.05 136.158,103.05 134,102.5C 134.184,99.2033 132.684,97.2033 129.5,96.5C 132.497,95.7518 135.497,95.0851 138.5,94.5C 139.167,92.5 139.833,90.5 140.5,88.5C 146.152,87.4439 150.485,84.1106 153.5,78.5C 154.833,78.5 156.167,78.5 157.5,78.5C 158.001,75.5985 159.667,74.0985 162.5,74C 161.289,74.8928 161.289,75.7261 162.5,76.5C 163.735,75.6602 164.735,74.6602 165.5,73.5 Z"/></g>
<g><path style="opacity:1" fill="#f1a1a2" d="M 153.5,78.5 C 150.485,84.1106 146.152,87.4439 140.5,88.5C 139.833,90.5 139.167,92.5 138.5,94.5C 135.497,95.0851 132.497,95.7518 129.5,96.5C 132.684,97.2033 134.184,99.2033 134,102.5C 136.158,103.05 136.658,104.05 135.5,105.5C 131.921,105.766 131.587,107.099 134.5,109.5C 132.625,112.751 130.625,115.918 128.5,119C 130.689,119.677 131.022,120.844 129.5,122.5C 131.171,124.51 131.838,126.843 131.5,129.5C 130.209,130.542 130.209,131.708 131.5,133C 131.167,133.167 130.833,133.333 130.5,133.5C 129.806,130.403 128.806,130.069 127.5,132.5C 128.034,134.614 129.034,136.448 130.5,138C 129.906,138.464 129.239,138.631 128.5,138.5C 126.189,136.932 123.522,136.098 120.5,136C 119.225,133.676 117.558,133.176 115.5,134.5C 111.807,135.056 109.14,133.722 107.5,130.5C 108.5,129.833 109.5,129.167 110.5,128.5C 107.167,126.748 105.501,127.748 105.5,131.5C 102.5,131.833 101.167,130.5 101.5,127.5C 100.167,127.5 98.8333,127.5 97.5,127.5C 97.762,128.978 97.4287,130.311 96.5,131.5C 95.2404,129.647 95.2404,127.814 96.5,126C 101.6,126.202 106.267,125.036 110.5,122.5C 109.675,121.614 108.675,121.281 107.5,121.5C 109.126,114.397 110.959,107.397 113,100.5C 117.404,101.864 121.571,101.198 125.5,98.5C 127.854,96.7539 128.854,94.4206 128.5,91.5C 130.857,91.6633 133.19,91.4966 135.5,91C 138.28,88.4362 141.28,86.1029 144.5,84C 145.793,83.51 147.127,83.3433 148.5,83.5C 148.162,79.8493 149.828,78.1826 153.5,78.5 Z"/></g>
<g><path style="opacity:1" fill="#a9c050" d="M 30.5,62.5 C 27.855,64.3104 24.855,65.3104 21.5,65.5C 21.424,69.2285 20.2574,72.5619 18,75.5C 17.6667,80.5 17.3333,85.5 17,90.5C 13.0711,96.4884 11.2378,103.155 11.5,110.5C 10.8826,110.389 10.3826,110.056 10,109.5C 9.24349,101.768 11.0768,94.7678 15.5,88.5C 16.3261,83.6835 16.8261,78.6835 17,73.5C 19.0779,70.8972 20.4112,67.8972 21,64.5C 24.0491,63.3899 27.2158,62.7233 30.5,62.5 Z"/></g>
<g><path style="opacity:1" fill="#d7df62" d="M 205.5,101.5 C 205.491,103.308 205.991,104.975 207,106.5C 212.593,109.908 216.427,114.574 218.5,120.5C 217.918,127.318 216.918,133.985 215.5,140.5C 217.501,153.996 218.001,167.663 217,181.5C 215.234,183.596 213.901,185.929 213,188.5C 211.512,190.16 209.679,191.16 207.5,191.5C 207.019,189.362 205.852,187.695 204,186.5C 203.667,183.833 203.333,181.167 203,178.5C 201.6,179.748 200.1,180.748 198.5,181.5C 198.5,180.833 198.5,180.167 198.5,179.5C 199.411,177.249 200.744,175.249 202.5,173.5C 204.046,171.103 206.046,169.103 208.5,167.5C 210.996,156.876 211.163,146.21 209,135.5C 205.089,130.678 201.422,125.678 198,120.5C 196.333,119.167 194.667,117.833 193,116.5C 191.348,112.699 189.514,109.032 187.5,105.5C 185.799,100.043 184.633,94.3763 184,88.5C 182.693,86.8082 181.193,85.4749 179.5,84.5C 178.215,81.5264 176.882,78.5264 175.5,75.5C 180.587,73.5043 185.92,73.0043 191.5,74C 202.104,80.1136 206.77,89.2803 205.5,101.5 Z"/></g>
<g><path style="opacity:1" fill="#0e0e0e" d="M 226.5,82.5 C 227.833,82.5 228.5,83.1667 228.5,84.5C 228.5,83.1667 227.833,82.5 226.5,82.5 Z"/></g>
<g><path style="opacity:1" fill="#efa7ab" d="M 62.5,73.5 C 62.7986,75.4553 63.7986,76.7886 65.5,77.5C 67.1368,78.3796 68.9701,79.0463 71,79.5C 72.6458,77.8592 73.6458,78.1925 74,80.5C 76.6467,78.0417 78.1467,78.8751 78.5,83C 77.042,84.7522 75.7087,86.5855 74.5,88.5C 73.3801,87.1666 72.0468,86.6666 70.5,87C 72.6758,90.1134 75.0091,90.2801 77.5,87.5C 78.7079,86.7659 80.0413,86.4326 81.5,86.5C 81.5,88.1667 81.5,89.8333 81.5,91.5C 85.991,91.3414 90.3244,91.1748 94.5,91C 95.2489,89.2663 95.7489,87.433 96,85.5C 96.3333,86.5 96.6667,87.5 97,88.5C 99.2031,86.3312 100.036,83.6646 99.5,80.5C 100.833,80.5 102.167,80.5 103.5,80.5C 103.5,82.1667 103.5,83.8333 103.5,85.5C 105.167,85.5 106.833,85.5 108.5,85.5C 107.152,86.6006 105.652,87.6006 104,88.5C 103.333,89.8333 103.333,91.1667 104,92.5C 106.473,93.1197 108.973,93.7864 111.5,94.5C 110.078,95.5472 108.578,95.5472 107,94.5C 105.28,95.723 103.447,96.723 101.5,97.5C 99.952,95.6236 97.952,94.6236 95.5,94.5C 95.6882,96.1033 95.1882,97.4366 94,98.5C 92.414,97.624 90.914,96.624 89.5,95.5C 88.5853,96.3279 87.9186,97.3279 87.5,98.5C 89.1492,99.1476 90.4825,100.148 91.5,101.5C 91.1667,102.5 90.5,103.167 89.5,103.5C 85.6038,102.097 82.4371,99.7632 80,96.5C 77.9348,97.6278 77.2681,99.2945 78,101.5C 79.8333,104 81.6667,106.5 83.5,109C 79.252,109.969 78.9187,110.802 82.5,111.5C 87.7176,108.82 89.3842,110.487 87.5,116.5C 85.6675,115.752 84.0009,114.752 82.5,113.5C 81.5344,115.396 81.2011,117.396 81.5,119.5C 81.8541,122.421 80.8541,124.754 78.5,126.5C 81.8114,127.555 84.8114,129.721 87.5,133C 87.0426,133.414 86.7093,133.914 86.5,134.5C 89.1634,135.192 91.6634,136.192 94,137.5C 94.8732,137.265 95.7065,136.931 96.5,136.5C 97.316,138.287 98.316,139.954 99.5,141.5C 97.5989,142.935 97.2655,144.602 98.5,146.5C 96.2338,147.314 93.9005,147.814 91.5,148C 89.8446,149.444 89.178,151.278 89.5,153.5C 97.4594,154.707 97.4594,156.207 89.5,158C 91.0557,158.72 92.0557,159.887 92.5,161.5C 91.1147,162.614 89.6147,163.614 88,164.5C 84.4441,163.991 80.6108,163.491 76.5,163C 74.5188,162.395 74.1854,161.395 75.5,160C 71.9846,156.788 67.9846,155.788 63.5,157C 62.8448,155.513 61.8448,154.347 60.5,153.5C 57.9761,155.831 57.3095,158.497 58.5,161.5C 59.1495,163.435 59.4828,165.435 59.5,167.5C 57.5486,165.52 56.0486,163.187 55,160.5C 53.6136,154.284 51.6136,148.284 49,142.5C 48.3333,139.167 48.3333,135.833 49,132.5C 55.5235,131.853 56.0235,130.019 50.5,127C 49.2161,126.316 48.0495,126.483 47,127.5C 46.8333,124.833 46.6667,122.167 46.5,119.5C 47.7538,112.219 48.9204,104.886 50,97.5C 50.7739,95.0607 52.2739,93.2273 54.5,92C 54.1667,91.6667 53.8333,91.3333 53.5,91C 55.4288,88.5755 56.4288,85.7421 56.5,82.5C 56.5,81.8333 56.5,81.1667 56.5,80.5C 59.0442,79.2921 60.3775,77.2921 60.5,74.5C 61.1667,74.1667 61.8333,73.8333 62.5,73.5 Z"/></g>
<g><path style="opacity:1" fill="#295720" d="M 230.5,86.5 C 231.833,86.5 232.5,87.1667 232.5,88.5C 232.5,87.1667 231.833,86.5 230.5,86.5 Z"/></g>
<g><path style="opacity:1" fill="#8a8f6a" d="M 232.5,88.5 C 235.313,89.4461 236.646,91.4461 236.5,94.5C 235.5,94.5 234.5,94.5 233.5,94.5C 233.167,92.5 232.833,90.5 232.5,88.5 Z"/></g>
<g><path style="opacity:1" fill="#0e0e0e" d="M 236.5,94.5 C 237.833,94.5 238.5,95.1667 238.5,96.5C 238.5,95.1667 237.833,94.5 236.5,94.5 Z"/></g>
<g><path style="opacity:1" fill="#d8bf6b" d="M 179.5,84.5 C 181.193,85.4749 182.693,86.8082 184,88.5C 184.633,94.3763 185.799,100.043 187.5,105.5C 184.833,100.34 182.833,94.8397 181.5,89C 181.164,87.9701 180.497,87.4701 179.5,87.5C 179.5,86.5 179.5,85.5 179.5,84.5 Z"/></g>
<g><path style="opacity:1" fill="#13520f" d="M 6.5,100.5 C 6.5,101.833 6.5,103.167 6.5,104.5C 5.83333,104.5 5.16667,104.5 4.5,104.5C 4.15684,102.517 4.82351,101.183 6.5,100.5 Z"/></g>
<g><path style="opacity:1" fill="#171717" d="M 4.5,104.5 C 5.16667,104.5 5.83333,104.5 6.5,104.5C 6.5,106.5 6.5,108.5 6.5,110.5C 4.69206,109.082 4.02539,107.082 4.5,104.5 Z"/></g>
<g><path style="opacity:1" fill="#e9af98" d="M 56.5,82.5 C 56.4288,85.7421 55.4288,88.5755 53.5,91C 53.8333,91.3333 54.1667,91.6667 54.5,92C 52.2739,93.2273 50.7739,95.0607 50,97.5C 48.9204,104.886 47.7538,112.219 46.5,119.5C 46.6667,122.167 46.8333,124.833 47,127.5C 48.0495,126.483 49.2161,126.316 50.5,127C 56.0235,130.019 55.5235,131.853 49,132.5C 48.3333,135.833 48.3333,139.167 49,142.5C 51.6136,148.284 53.6136,154.284 55,160.5C 56.0486,163.187 57.5486,165.52 59.5,167.5C 59.5,168.167 59.5,168.833 59.5,169.5C 57.8058,168.473 56.4725,167.139 55.5,165.5C 55.4312,162.916 54.2645,160.916 52,159.5C 51.3404,153.871 49.8404,148.538 47.5,143.5C 46.8786,135.449 45.8786,127.449 44.5,119.5C 46.0017,110.811 47.835,102.145 50,93.5C 52.082,89.7148 54.2487,86.0481 56.5,82.5 Z"/></g>
<g><path style="opacity:1" fill="#e89491" d="M 170.5,78.5 C 172.789,80.448 175.122,82.448 177.5,84.5C 178.167,84.5 178.833,84.5 179.5,84.5C 179.5,85.5 179.5,86.5 179.5,87.5C 180.984,92.726 182.151,98.0593 183,103.5C 186.774,109.717 189.441,116.383 191,123.5C 193,124.833 195,126.167 197,127.5C 197.333,129.5 197.667,131.5 198,133.5C 200.772,137.388 203.272,141.388 205.5,145.5C 203.894,146.359 202.227,146.526 200.5,146C 199.833,148 198.5,149.333 196.5,150C 197.328,150.915 198.328,151.581 199.5,152C 194.948,152.724 192.281,155.224 191.5,159.5C 189.435,159.517 187.435,159.85 185.5,160.5C 186.5,159.167 187.5,157.833 188.5,156.5C 190.291,155.517 191.791,154.184 193,152.5C 193.166,148.669 193.999,145.003 195.5,141.5C 194.84,136.51 192.506,132.51 188.5,129.5C 188.709,128.914 189.043,128.414 189.5,128C 187.483,124.288 186.15,120.455 185.5,116.5C 184.914,112.558 182.914,111.225 179.5,112.5C 179.5,112.833 179.5,113.167 179.5,113.5C 177.517,113.157 176.183,113.824 175.5,115.5C 175.167,115.5 174.833,115.5 174.5,115.5C 172.724,115.659 170.724,115.325 168.5,114.5C 167.672,115.415 166.672,116.081 165.5,116.5C 163.627,116.518 163.294,116.018 164.5,115C 163.707,113.915 163.04,112.748 162.5,111.5C 160.415,109.425 158.581,109.425 157,111.5C 155.085,108.765 153.918,105.765 153.5,102.5C 155.604,102.799 157.604,102.466 159.5,101.5C 159.291,100.914 158.957,100.414 158.5,100C 158.966,97.8767 160.133,96.3767 162,95.5C 164.406,97.3149 166.073,99.6482 167,102.5C 170.051,99.5702 171.218,95.9035 170.5,91.5C 172.144,91.2865 173.644,91.6198 175,92.5C 175.27,95.2241 175.77,97.8908 176.5,100.5C 175.009,101.244 173.509,101.91 172,102.5C 171.175,106.211 171.341,109.878 172.5,113.5C 176.367,109.606 179.367,105.106 181.5,100C 180.663,98.9887 180.33,97.8221 180.5,96.5C 176.547,95.5855 175.547,93.2522 177.5,89.5C 176.797,87.231 175.63,85.231 174,83.5C 172.284,82.4477 171.284,83.1144 171,85.5C 169.272,83.1806 169.105,80.8473 170.5,78.5 Z"/></g>
<g><path style="opacity:1" fill="#97666e" d="M 179.5,112.5 C 182.914,111.225 184.914,112.558 185.5,116.5C 184.883,116.611 184.383,116.944 184,117.5C 183.501,121.486 183.334,125.486 183.5,129.5C 181.517,129.843 180.183,129.176 179.5,127.5C 180.496,127.586 181.329,127.252 182,126.5C 182.645,122.638 182.479,118.804 181.5,115C 181.316,113.624 180.649,112.791 179.5,112.5 Z"/></g>
<g><path style="opacity:1" fill="#dda07c" d="M 179.5,87.5 C 180.497,87.4701 181.164,87.9701 181.5,89C 182.833,94.8397 184.833,100.34 187.5,105.5C 187.523,109.542 188.689,113.208 191,116.5C 197.913,123.971 203.08,132.638 206.5,142.5C 207.548,149.144 207.714,155.81 207,162.5C 206.059,164.727 204.892,166.727 203.5,168.5C 203.755,165.984 204.589,163.65 206,161.5C 206.814,156.98 206.647,152.646 205.5,148.5C 205.5,147.5 205.5,146.5 205.5,145.5C 203.272,141.388 200.772,137.388 198,133.5C 197.667,131.5 197.333,129.5 197,127.5C 195,126.167 193,124.833 191,123.5C 189.441,116.383 186.774,109.717 183,103.5C 182.151,98.0593 180.984,92.726 179.5,87.5 Z"/></g>
<g><path style="opacity:1" fill="#4d5034" d="M 232.5,116.5 C 232.5,117.833 232.5,119.167 232.5,120.5C 231.414,120.38 230.747,119.713 230.5,118.5C 230.747,117.287 231.414,116.62 232.5,116.5 Z"/></g>
<g><path style="opacity:1" fill="#29111d" d="M 179.5,112.5 C 180.649,112.791 181.316,113.624 181.5,115C 182.479,118.804 182.645,122.638 182,126.5C 181.329,127.252 180.496,127.586 179.5,127.5C 179.167,127.5 178.833,127.5 178.5,127.5C 176.954,125.118 176.287,122.451 176.5,119.5C 177.5,119.5 178.5,119.5 179.5,119.5C 178.725,117.388 178.725,115.388 179.5,113.5C 179.5,113.167 179.5,112.833 179.5,112.5 Z"/></g>
<g><path style="opacity:1" fill="#deba82" d="M 54.5,80.5 C 55.1667,80.5 55.8333,80.5 56.5,80.5C 56.5,81.1667 56.5,81.8333 56.5,82.5C 54.2487,86.0481 52.082,89.7148 50,93.5C 47.835,102.145 46.0017,110.811 44.5,119.5C 45.8786,127.449 46.8786,135.449 47.5,143.5C 46.3586,140.746 45.0252,138.079 43.5,135.5C 42.9418,122.722 43.7752,110.056 46,97.5C 49.5604,92.132 52.3937,86.4654 54.5,80.5 Z"/></g>
<g><path style="opacity:1" fill="#72474c" d="M 179.5,113.5 C 178.725,115.388 178.725,117.388 179.5,119.5C 178.5,119.5 177.5,119.5 176.5,119.5C 176.287,122.451 176.954,125.118 178.5,127.5C 177.542,127.047 176.708,126.381 176,125.5C 175.502,122.183 175.335,118.85 175.5,115.5C 176.183,113.824 177.517,113.157 179.5,113.5 Z"/></g>
<g><path style="opacity:1" fill="#d7e062" d="M 43.5,100.5 C 42.2426,111.95 42.2426,123.617 43.5,135.5C 44.5142,140.184 45.5142,144.851 46.5,149.5C 45.0689,149.119 44.2355,148.119 44,146.5C 43.5983,147.872 43.0983,149.205 42.5,150.5C 42.5055,156.822 44.3389,162.489 48,167.5C 48.4983,170.817 48.665,174.15 48.5,177.5C 46.4176,177.472 44.5843,178.139 43,179.5C 42.6667,179.167 42.3333,178.833 42,178.5C 41.3162,179.784 41.4829,180.951 42.5,182C 41.9747,182.692 41.3081,183.192 40.5,183.5C 41.1081,181.316 40.4414,179.316 38.5,177.5C 37.3461,179.856 36.0127,180.023 34.5,178C 35.8476,176.426 36.5142,174.593 36.5,172.5C 36.4868,167.738 36.1535,163.071 35.5,158.5C 35.6495,157.448 35.4828,156.448 35,155.5C 28.2227,151.272 25.8894,145.272 28,137.5C 30.6431,135.62 32.4765,133.12 33.5,130C 27.5351,122.424 27.0351,114.59 32,106.5C 35.0062,102.889 38.8396,100.889 43.5,100.5 Z"/></g>
<g><path style="opacity:1" fill="#363823" d="M 6.5,126.5 C 6.5,128.5 6.5,130.5 6.5,132.5C 5.30652,132.03 4.63985,131.03 4.5,129.5C 4.63985,127.97 5.30652,126.97 6.5,126.5 Z"/></g>
<g><path style="opacity:1" fill="#f2a0a4" d="M 131.5,129.5 C 132.355,130.531 133.022,131.697 133.5,133C 133.05,136.446 132.383,139.613 131.5,142.5C 133.173,144.086 135.173,144.753 137.5,144.5C 137.238,145.978 137.571,147.311 138.5,148.5C 141.391,149.006 144.058,150.006 146.5,151.5C 147.425,150.359 148.259,150.359 149,151.5C 152.151,148.228 155.318,148.228 158.5,151.5C 155.721,152.617 155.388,153.783 157.5,155C 156.146,156.294 154.812,156.46 153.5,155.5C 151.224,156.213 148.891,156.713 146.5,157C 146.833,157.333 147.167,157.667 147.5,158C 143.209,157.792 139.542,159.125 136.5,162C 132.803,163.899 129.136,163.899 125.5,162C 126.167,161.667 126.833,161.333 127.5,161C 125.039,158.34 122.039,156.506 118.5,155.5C 117.304,155.846 117.304,156.346 118.5,157C 119.833,157.667 121.167,158.333 122.5,159C 119.82,159.335 117.487,158.501 115.5,156.5C 106.148,159.932 97.9816,165.265 91,172.5C 90.2069,169.979 89.3735,167.979 88.5,166.5C 84.3541,168.247 80.0208,169.247 75.5,169.5C 75.719,168.325 75.3857,167.325 74.5,166.5C 70.9464,165.231 67.9464,163.231 65.5,160.5C 64.5,161 63.5,161.5 62.5,162C 63.7112,162.893 63.7112,163.726 62.5,164.5C 61.1482,163.476 59.8149,162.476 58.5,161.5C 57.3095,158.497 57.9761,155.831 60.5,153.5C 61.8448,154.347 62.8448,155.513 63.5,157C 67.9846,155.788 71.9846,156.788 75.5,160C 74.1854,161.395 74.5188,162.395 76.5,163C 80.6108,163.491 84.4441,163.991 88,164.5C 89.6147,163.614 91.1147,162.614 92.5,161.5C 92.811,162.478 93.4777,163.145 94.5,163.5C 96.9205,160.414 98.9205,157.081 100.5,153.5C 99.8333,152.5 99.1667,151.5 98.5,150.5C 100.423,149.692 102.423,149.192 104.5,149C 108.084,144.866 112.417,143.7 117.5,145.5C 117.181,143.25 117.681,141.25 119,139.5C 118.887,144.206 121.054,146.873 125.5,147.5C 125.561,145.408 126.561,143.908 128.5,143C 127.272,141.51 127.272,140.01 128.5,138.5C 129.239,138.631 129.906,138.464 130.5,138C 129.034,136.448 128.034,134.614 127.5,132.5C 128.806,130.069 129.806,130.403 130.5,133.5C 130.833,133.333 131.167,133.167 131.5,133C 130.209,131.708 130.209,130.542 131.5,129.5 Z"/></g>
<g><path style="opacity:1" fill="#d7c763" d="M 187.5,105.5 C 189.514,109.032 191.348,112.699 193,116.5C 194.667,117.833 196.333,119.167 198,120.5C 201.422,125.678 205.089,130.678 209,135.5C 211.163,146.21 210.996,156.876 208.5,167.5C 206.046,169.103 204.046,171.103 202.5,173.5C 202.629,171.784 202.962,170.117 203.5,168.5C 204.892,166.727 206.059,164.727 207,162.5C 207.714,155.81 207.548,149.144 206.5,142.5C 203.08,132.638 197.913,123.971 191,116.5C 188.689,113.208 187.523,109.542 187.5,105.5 Z"/></g>
<g><path style="opacity:1" fill="#f1a7a8" d="M 81.5,119.5 C 82.0799,125.231 85.4133,128.064 91.5,128C 93.6313,129.857 94.1313,132.023 93,134.5C 94.8254,135.103 96.6587,135.77 98.5,136.5C 100.649,140.411 102.649,140.244 104.5,136C 106.634,135.873 108.801,136.039 111,136.5C 113.008,136.693 114.508,136.026 115.5,134.5C 117.558,133.176 119.225,133.676 120.5,136C 123.522,136.098 126.189,136.932 128.5,138.5C 127.272,140.01 127.272,141.51 128.5,143C 126.561,143.908 125.561,145.408 125.5,147.5C 121.054,146.873 118.887,144.206 119,139.5C 117.681,141.25 117.181,143.25 117.5,145.5C 112.417,143.7 108.084,144.866 104.5,149C 102.423,149.192 100.423,149.692 98.5,150.5C 99.1667,151.5 99.8333,152.5 100.5,153.5C 98.9205,157.081 96.9205,160.414 94.5,163.5C 93.4777,163.145 92.811,162.478 92.5,161.5C 92.0557,159.887 91.0557,158.72 89.5,158C 97.4594,156.207 97.4594,154.707 89.5,153.5C 89.178,151.278 89.8446,149.444 91.5,148C 93.9005,147.814 96.2338,147.314 98.5,146.5C 97.2655,144.602 97.5989,142.935 99.5,141.5C 98.316,139.954 97.316,138.287 96.5,136.5C 95.7065,136.931 94.8732,137.265 94,137.5C 91.6634,136.192 89.1634,135.192 86.5,134.5C 86.7093,133.914 87.0426,133.414 87.5,133C 84.8114,129.721 81.8114,127.555 78.5,126.5C 80.8541,124.754 81.8541,122.421 81.5,119.5 Z"/></g>
<g><path style="opacity:1" fill="#eaa3a8" d="M 135.5,105.5 C 137.679,106.059 139.846,106.726 142,107.5C 142.772,107.355 143.439,107.022 144,106.5C 145.804,108.761 147.971,110.428 150.5,111.5C 152.873,116.041 156.373,119.374 161,121.5C 164.665,117.961 167.831,117.961 170.5,121.5C 171.361,119.089 172.694,117.089 174.5,115.5C 174.833,115.5 175.167,115.5 175.5,115.5C 175.335,118.85 175.502,122.183 176,125.5C 176.708,126.381 177.542,127.047 178.5,127.5C 178.833,127.5 179.167,127.5 179.5,127.5C 180.183,129.176 181.517,129.843 183.5,129.5C 183.334,125.486 183.501,121.486 184,117.5C 184.383,116.944 184.883,116.611 185.5,116.5C 186.15,120.455 187.483,124.288 189.5,128C 189.043,128.414 188.709,128.914 188.5,129.5C 192.506,132.51 194.84,136.51 195.5,141.5C 193.999,145.003 193.166,148.669 193,152.5C 191.791,154.184 190.291,155.517 188.5,156.5C 188.557,155.391 188.89,154.391 189.5,153.5C 189.839,137.019 181.839,130.519 165.5,134C 160.386,137.495 158.719,141.995 160.5,147.5C 160.843,149.483 160.176,150.817 158.5,151.5C 155.318,148.228 152.151,148.228 149,151.5C 148.259,150.359 147.425,150.359 146.5,151.5C 144.058,150.006 141.391,149.006 138.5,148.5C 137.571,147.311 137.238,145.978 137.5,144.5C 135.173,144.753 133.173,144.086 131.5,142.5C 132.383,139.613 133.05,136.446 133.5,133C 133.022,131.697 132.355,130.531 131.5,129.5C 131.838,126.843 131.171,124.51 129.5,122.5C 131.022,120.844 130.689,119.677 128.5,119C 130.625,115.918 132.625,112.751 134.5,109.5C 131.587,107.099 131.921,105.766 135.5,105.5 Z"/></g>
<g><path style="opacity:1" fill="#855d66" d="M 144.5,128.5 C 145.77,124.215 145.77,119.881 144.5,115.5C 142.724,113.553 140.724,113.22 138.5,114.5C 139.813,119.957 138.813,120.623 135.5,116.5C 136.222,112.534 138.722,110.868 143,111.5C 145.603,111.965 148.103,112.632 150.5,113.5C 151.44,117.463 151.607,121.463 151,125.5C 149.157,127.171 146.991,128.171 144.5,128.5 Z"/></g>
<g><path style="opacity:1" fill="#2b1019" d="M 144.5,128.5 C 136.715,127.75 133.715,123.75 135.5,116.5C 138.813,120.623 139.813,119.957 138.5,114.5C 140.724,113.22 142.724,113.553 144.5,115.5C 145.77,119.881 145.77,124.215 144.5,128.5 Z"/></g>
<g><path style="opacity:1" fill="#c7b4ba" d="M 146.5,115.5 C 148.511,116.417 149.511,118.083 149.5,120.5C 149.167,121.833 148.833,123.167 148.5,124.5C 147.511,121.562 146.844,118.562 146.5,115.5 Z"/></g>
<g><path style="opacity:1" fill="#9ec330" d="M 16.5,117.5 C 20.1141,121.056 22.4474,125.39 23.5,130.5C 25.2174,129.332 25.8841,127.665 25.5,125.5C 31.3753,128.167 31.7086,131.167 26.5,134.5C 25.5224,134.023 24.6891,133.357 24,132.5C 23.654,134.218 23.154,135.885 22.5,137.5C 24.5165,141.065 24.8498,144.565 23.5,148C 24.2401,149.785 24.9067,151.618 25.5,153.5C 26.3914,154.59 27.3914,154.59 28.5,153.5C 30.4852,155.997 31.8185,158.831 32.5,162C 30.2438,163.834 30.2438,165.501 32.5,167C 29.9613,168.099 29.2946,169.766 30.5,172C 29.8333,173 29.1667,174 28.5,175C 30.7655,178.467 32.0988,182.3 32.5,186.5C 30.88,185.159 29.88,183.326 29.5,181C 27.5826,181.027 25.916,181.861 24.5,183.5C 23.418,180.417 21.418,178.417 18.5,177.5C 18.219,172.435 18.5524,167.435 19.5,162.5C 18.1502,161.05 16.4835,160.383 14.5,160.5C 14.5979,158.447 13.9313,156.78 12.5,155.5C 13.9198,150.912 15.5864,146.412 17.5,142C 15.9865,137.801 14.3199,133.635 12.5,129.5C 14.8483,125.826 16.1816,121.826 16.5,117.5 Z"/></g>
<g><path style="opacity:1" fill="#2b2b27" d="M 234.5,146.5 C 234.5,147.833 233.833,148.5 232.5,148.5C 232.5,147.167 233.167,146.5 234.5,146.5 Z"/></g>
<g><path style="opacity:1" fill="#ec8585" d="M 205.5,145.5 C 205.5,146.5 205.5,147.5 205.5,148.5C 204.759,151.413 204.259,154.413 204,157.5C 203.138,155.913 202.471,154.246 202,152.5C 200.229,153.304 198.729,154.471 197.5,156C 202.255,161.358 202.589,167.024 198.5,173C 197.216,173.684 196.049,173.517 195,172.5C 194.276,170.328 193.776,167.994 193.5,165.5C 191.376,164.851 189.376,164.017 187.5,163C 181.181,163.828 174.847,163.661 168.5,162.5C 170.05,161.28 171.716,161.28 173.5,162.5C 177.742,162.921 181.742,162.254 185.5,160.5C 187.435,159.85 189.435,159.517 191.5,159.5C 192.281,155.224 194.948,152.724 199.5,152C 198.328,151.581 197.328,150.915 196.5,150C 198.5,149.333 199.833,148 200.5,146C 202.227,146.526 203.894,146.359 205.5,145.5 Z"/></g>
<g><path style="opacity:1" fill="#310c1a" d="M 189.5,153.5 C 188.325,153.281 187.325,153.614 186.5,154.5C 184.62,158.535 181.453,160.202 177,159.5C 175.167,159.333 173.333,159.167 171.5,159C 169.609,157.558 167.609,156.391 165.5,155.5C 162.933,153.293 161.267,150.627 160.5,147.5C 158.719,141.995 160.386,137.495 165.5,134C 181.839,130.519 189.839,137.019 189.5,153.5 Z"/></g>
<g><path style="opacity:1" fill="#4f1538" d="M 163.5,141.5 C 165.16,143.248 167.16,143.748 169.5,143C 170.909,140.391 170.242,138.558 167.5,137.5C 171.349,134.785 175.182,135.118 179,138.5C 180.5,141.167 182,143.833 183.5,146.5C 180.701,148.968 177.868,151.301 175,153.5C 169.123,151.378 165.289,147.378 163.5,141.5 Z"/></g>
<g><path style="opacity:1" fill="#a26686" d="M 167.5,137.5 C 170.242,138.558 170.909,140.391 169.5,143C 167.16,143.748 165.16,143.248 163.5,141.5C 163.525,138.821 164.858,137.488 167.5,137.5 Z"/></g>
<g><path style="opacity:1" fill="#a3bd34" d="M 33.5,80.5 C 33.3345,84.5138 33.5012,88.5138 34,92.5C 35.3296,96.0067 37.8296,97.6734 41.5,97.5C 42.552,97.3505 43.552,97.5172 44.5,98C 43.7476,98.6708 43.4142,99.5041 43.5,100.5C 38.8396,100.889 35.0062,102.889 32,106.5C 27.0351,114.59 27.5351,122.424 33.5,130C 32.4765,133.12 30.6431,135.62 28,137.5C 25.8894,145.272 28.2227,151.272 35,155.5C 35.4828,156.448 35.6495,157.448 35.5,158.5C 34.9766,164.062 33.9766,169.562 32.5,175C 32.9459,178.175 33.4459,181.342 34,184.5C 36.4162,187.088 38.9162,189.422 41.5,191.5C 41.7214,192.735 42.3881,193.735 43.5,194.5C 48.4671,195.329 53.4671,195.829 58.5,196C 63.7338,198.399 67.4004,202.232 69.5,207.5C 69.5,208.167 69.5,208.833 69.5,209.5C 69.1667,209.5 68.8333,209.5 68.5,209.5C 67.5169,208.15 66.1836,207.15 64.5,206.5C 63.5195,203.78 62.0195,201.447 60,199.5C 58.3333,199.833 56.6667,200.167 55,200.5C 51,199.167 47,197.833 43,196.5C 42.586,196.957 42.086,197.291 41.5,197.5C 39.1071,195.637 36.4404,194.304 33.5,193.5C 33.0015,191.109 32.6682,188.776 32.5,186.5C 32.0988,182.3 30.7655,178.467 28.5,175C 29.1667,174 29.8333,173 30.5,172C 29.2946,169.766 29.9613,168.099 32.5,167C 30.2438,165.501 30.2438,163.834 32.5,162C 31.8185,158.831 30.4852,155.997 28.5,153.5C 27.3914,154.59 26.3914,154.59 25.5,153.5C 24.9067,151.618 24.2401,149.785 23.5,148C 24.8498,144.565 24.5165,141.065 22.5,137.5C 23.154,135.885 23.654,134.218 24,132.5C 24.6891,133.357 25.5224,134.023 26.5,134.5C 31.7086,131.167 31.3753,128.167 25.5,125.5C 25.334,120.156 25.5006,114.823 26,109.5C 27.7198,108.616 28.8865,107.283 29.5,105.5C 32.091,104.072 33.7576,101.905 34.5,99C 32.4393,95.711 30.7726,92.211 29.5,88.5C 29.144,85.2088 30.4774,82.5422 33.5,80.5 Z"/></g>
<g><path style="opacity:1" fill="#9ab44a" d="M 15.5,116.5 C 16.1667,116.5 16.5,116.833 16.5,117.5C 16.1816,121.826 14.8483,125.826 12.5,129.5C 14.3199,133.635 15.9865,137.801 17.5,142C 15.5864,146.412 13.9198,150.912 12.5,155.5C 12.3433,156.873 12.51,158.207 13,159.5C 15.1058,161.377 16.4391,163.71 17,166.5C 17.1972,174.549 17.6972,182.549 18.5,190.5C 21.9334,192.305 24.9334,194.638 27.5,197.5C 30.4411,198.522 33.4411,199.355 36.5,200C 38.4506,201.734 39.4506,203.901 39.5,206.5C 36.1202,201.804 31.4535,199.137 25.5,198.5C 21.8688,196.368 18.7022,193.701 16,190.5C 15.8315,182.812 15.3315,175.145 14.5,167.5C 7.67768,160.072 7.84435,152.739 15,145.5C 15.9648,141.294 14.7982,137.794 11.5,135C 9.63791,129.64 10.8046,125.14 15,121.5C 15.4935,119.866 15.6602,118.199 15.5,116.5 Z"/></g>
<g><path style="opacity:1" fill="#383d11" d="M 6.5,152.5 C 6.5,154.5 6.5,156.5 6.5,158.5C 5.35089,158.209 4.68423,157.376 4.5,156C 4.38655,154.301 5.05322,153.134 6.5,152.5 Z"/></g>
<g><path style="opacity:1" fill="#d2cc63" d="M 43.5,135.5 C 45.0252,138.079 46.3586,140.746 47.5,143.5C 49.8404,148.538 51.3404,153.871 52,159.5C 54.2645,160.916 55.4312,162.916 55.5,165.5C 56.1667,167.833 56.8333,170.167 57.5,172.5C 55.7146,170.622 53.7146,168.956 51.5,167.5C 51.1315,163.044 49.6315,159.044 47,155.5C 46.5045,153.527 46.3379,151.527 46.5,149.5C 45.5142,144.851 44.5142,140.184 43.5,135.5 Z"/></g>
<g><path style="opacity:1" fill="#a6b189" d="M 232.5,150.5 C 235.08,151.615 236.746,153.615 237.5,156.5C 238.833,161.167 238.833,165.833 237.5,170.5C 236.943,172.332 235.943,173.665 234.5,174.5C 233.065,173.015 233.232,171.682 235,170.5C 235.667,166.167 235.667,161.833 235,157.5C 233.477,155.431 232.643,153.097 232.5,150.5 Z"/></g>
<g><path style="opacity:1" fill="#bc6d6f" d="M 189.5,153.5 C 188.89,154.391 188.557,155.391 188.5,156.5C 187.5,157.833 186.5,159.167 185.5,160.5C 181.742,162.254 177.742,162.921 173.5,162.5C 171.975,160.964 169.975,159.964 167.5,159.5C 166.147,158.476 165.48,157.143 165.5,155.5C 167.609,156.391 169.609,157.558 171.5,159C 173.333,159.167 175.167,159.333 177,159.5C 181.453,160.202 184.62,158.535 186.5,154.5C 187.325,153.614 188.325,153.281 189.5,153.5 Z"/></g>
<g><path style="opacity:1" fill="#c4d19b" d="M 12.5,77.5 C 13.5,77.5 14.5,77.5 15.5,77.5C 15.5,81.1667 15.5,84.8333 15.5,88.5C 11.0768,94.7678 9.24349,101.768 10,109.5C 10.3826,110.056 10.8826,110.389 11.5,110.5C 11.6574,113.318 12.9908,115.318 15.5,116.5C 15.6602,118.199 15.4935,119.866 15,121.5C 10.8046,125.14 9.63791,129.64 11.5,135C 14.7982,137.794 15.9648,141.294 15,145.5C 7.84435,152.739 7.67768,160.072 14.5,167.5C 15.3315,175.145 15.8315,182.812 16,190.5C 18.7022,193.701 21.8688,196.368 25.5,198.5C 31.4535,199.137 36.1202,201.804 39.5,206.5C 39.5,208.5 39.5,210.5 39.5,212.5C 39.5674,213.959 39.2341,215.292 38.5,216.5C 37.8333,216.5 37.1667,216.5 36.5,216.5C 36.3805,207.377 31.7138,202.377 22.5,201.5C 20.7531,199.41 18.7531,197.743 16.5,196.5C 14.9804,191.307 14.147,185.974 14,180.5C 13.2828,179.956 12.7828,179.289 12.5,178.5C 12.8134,175.753 12.48,173.086 11.5,170.5C 9.25605,166.686 7.58939,162.686 6.5,158.5C 6.5,156.5 6.5,154.5 6.5,152.5C 8.22122,148.727 10.2212,145.061 12.5,141.5C 9.21766,139.242 7.21766,136.242 6.5,132.5C 6.5,130.5 6.5,128.5 6.5,126.5C 8.0798,123.912 10.0798,121.578 12.5,119.5C 9.21766,117.242 7.21766,114.242 6.5,110.5C 6.5,108.5 6.5,106.5 6.5,104.5C 6.5,103.167 6.5,101.833 6.5,100.5C 7.58939,96.3136 9.25605,92.3136 11.5,88.5C 12.4892,84.8927 12.8226,81.226 12.5,77.5 Z"/></g>
<g><path style="opacity:1" fill="#ec9191" d="M 160.5,147.5 C 161.267,150.627 162.933,153.293 165.5,155.5C 165.48,157.143 166.147,158.476 167.5,159.5C 169.975,159.964 171.975,160.964 173.5,162.5C 171.716,161.28 170.05,161.28 168.5,162.5C 168.167,162.5 167.833,162.5 167.5,162.5C 166.488,160.155 164.654,158.822 162,158.5C 157.173,161.804 152.173,162.804 147,161.5C 145.513,162.253 145.346,163.086 146.5,164C 144.167,164.333 141.833,164.667 139.5,165C 135.675,172.131 130.675,173.464 124.5,169C 122.302,168.627 120.135,168.127 118,167.5C 111.382,170.151 104.549,171.984 97.5,173C 95.4245,176.088 92.5911,177.921 89,178.5C 86.4355,176.821 83.6021,176.154 80.5,176.5C 80.5,177.5 80.5,178.5 80.5,179.5C 78.0189,183.371 75.3522,183.371 72.5,179.5C 71.8933,179.624 71.56,179.957 71.5,180.5C 69.4504,178.453 67.117,176.786 64.5,175.5C 63.2101,173.208 61.5435,171.208 59.5,169.5C 59.5,168.833 59.5,168.167 59.5,167.5C 59.4828,165.435 59.1495,163.435 58.5,161.5C 59.8149,162.476 61.1482,163.476 62.5,164.5C 63.7112,163.726 63.7112,162.893 62.5,162C 63.5,161.5 64.5,161 65.5,160.5C 67.9464,163.231 70.9464,165.231 74.5,166.5C 75.3857,167.325 75.719,168.325 75.5,169.5C 80.0208,169.247 84.3541,168.247 88.5,166.5C 89.3735,167.979 90.2069,169.979 91,172.5C 97.9816,165.265 106.148,159.932 115.5,156.5C 117.487,158.501 119.82,159.335 122.5,159C 121.167,158.333 119.833,157.667 118.5,157C 117.304,156.346 117.304,155.846 118.5,155.5C 122.039,156.506 125.039,158.34 127.5,161C 126.833,161.333 126.167,161.667 125.5,162C 129.136,163.899 132.803,163.899 136.5,162C 139.542,159.125 143.209,157.792 147.5,158C 147.167,157.667 146.833,157.333 146.5,157C 148.891,156.713 151.224,156.213 153.5,155.5C 154.812,156.46 156.146,156.294 157.5,155C 155.388,153.783 155.721,152.617 158.5,151.5C 160.176,150.817 160.843,149.483 160.5,147.5 Z"/></g>
<g><path style="opacity:1" fill="#e48070" d="M 205.5,148.5 C 206.647,152.646 206.814,156.98 206,161.5C 204.589,163.65 203.755,165.984 203.5,168.5C 201.295,172.056 198.628,175.389 195.5,178.5C 191.46,181.553 187.46,184.553 183.5,187.5C 179.5,188.833 175.5,190.167 171.5,191.5C 173.675,188.522 176.675,187.022 180.5,187C 188.559,183.039 191.726,176.873 190,168.5C 186.295,165.869 182.128,164.535 177.5,164.5C 177.452,167.292 178.785,169.125 181.5,170C 178.43,169.645 175.43,170.145 172.5,171.5C 168.506,170.457 164.839,168.624 161.5,166C 163.437,164.538 165.437,163.372 167.5,162.5C 167.833,162.5 168.167,162.5 168.5,162.5C 174.847,163.661 181.181,163.828 187.5,163C 189.376,164.017 191.376,164.851 193.5,165.5C 193.776,167.994 194.276,170.328 195,172.5C 196.049,173.517 197.216,173.684 198.5,173C 202.589,167.024 202.255,161.358 197.5,156C 198.729,154.471 200.229,153.304 202,152.5C 202.471,154.246 203.138,155.913 204,157.5C 204.259,154.413 204.759,151.413 205.5,148.5 Z"/></g>
<g><path style="opacity:1" fill="#a1b950" d="M 223.5,65.5 C 225.026,66.4919 225.693,67.9919 225.5,70C 223.714,75.0231 223.214,80.1898 224,85.5C 227.412,88.7417 230.579,92.075 233.5,95.5C 234.773,99.5501 234.606,103.55 233,107.5C 231.341,110.649 229.841,113.816 228.5,117C 230.453,122.861 231.787,128.861 232.5,135C 232.275,138.624 231.608,142.124 230.5,145.5C 229.853,146.274 229.52,147.274 229.5,148.5C 231.469,153.429 233.136,158.429 234.5,163.5C 231.502,174.675 229.002,186.008 227,197.5C 226.502,199.544 225.335,200.878 223.5,201.5C 223.5,200.167 223.5,198.833 223.5,197.5C 224.558,196.4 225.392,195.066 226,193.5C 226.752,183.496 228.918,173.829 232.5,164.5C 229.81,158.154 227.477,151.821 225.5,145.5C 226.508,143.661 228.008,142.328 230,141.5C 230.667,137.167 230.667,132.833 230,128.5C 228.533,124.63 227.699,120.63 227.5,116.5C 227.619,112.99 228.786,109.99 231,107.5C 231.667,103.5 231.667,99.5 231,95.5C 228.632,93.1463 225.965,91.1463 223,89.5C 222.667,88.1667 222.333,86.8333 222,85.5C 221.519,78.7595 222.019,72.0928 223.5,65.5 Z"/></g>
<g><path style="opacity:1" fill="#ea8783" d="M 167.5,162.5 C 165.437,163.372 163.437,164.538 161.5,166C 164.839,168.624 168.506,170.457 172.5,171.5C 172.5,174.167 172.5,176.833 172.5,179.5C 171.5,179.5 170.5,179.5 169.5,179.5C 171.081,177.858 171.747,175.858 171.5,173.5C 166.833,173.5 162.167,173.5 157.5,173.5C 158.091,172.849 158.757,172.182 159.5,171.5C 158.147,170.476 157.48,169.143 157.5,167.5C 154.881,167.232 152.381,167.565 150,168.5C 146.881,166.336 143.714,166.169 140.5,168C 136.644,171.357 132.644,174.524 128.5,177.5C 125.772,176.982 123.272,175.982 121,174.5C 117.714,175.726 114.548,175.393 111.5,173.5C 105.764,175.667 100.93,179 97,183.5C 95.3116,181.152 93.4783,180.985 91.5,183C 91.8333,183.333 92.1667,183.667 92.5,184C 90.1526,184.436 87.8193,184.936 85.5,185.5C 83.5477,184.792 81.881,183.625 80.5,182C 82.8418,180.608 82.8418,179.775 80.5,179.5C 80.5,178.5 80.5,177.5 80.5,176.5C 83.6021,176.154 86.4355,176.821 89,178.5C 92.5911,177.921 95.4245,176.088 97.5,173C 104.549,171.984 111.382,170.151 118,167.5C 120.135,168.127 122.302,168.627 124.5,169C 130.675,173.464 135.675,172.131 139.5,165C 141.833,164.667 144.167,164.333 146.5,164C 145.346,163.086 145.513,162.253 147,161.5C 152.173,162.804 157.173,161.804 162,158.5C 164.654,158.822 166.488,160.155 167.5,162.5 Z"/></g>
<g><path style="opacity:1" fill="#e67d75" d="M 171.5,191.5 C 164.941,192.967 158.274,193.801 151.5,194C 146.514,198.206 140.847,199.373 134.5,197.5C 132.668,198.248 131.001,199.248 129.5,200.5C 128.803,198.615 127.803,198.282 126.5,199.5C 124.038,198.284 121.371,197.618 118.5,197.5C 113.501,197.917 108.501,198.25 103.5,198.5C 97.532,198.515 92.532,196.348 88.5,192C 86.8659,191.506 85.1992,191.34 83.5,191.5C 81.5341,189.196 79.5341,186.863 77.5,184.5C 75.8849,183.846 74.2182,183.346 72.5,183C 71.7476,182.329 71.4142,181.496 71.5,180.5C 71.56,179.957 71.8933,179.624 72.5,179.5C 75.3522,183.371 78.0189,183.371 80.5,179.5C 82.8418,179.775 82.8418,180.608 80.5,182C 81.881,183.625 83.5477,184.792 85.5,185.5C 87.8193,184.936 90.1526,184.436 92.5,184C 92.1667,183.667 91.8333,183.333 91.5,183C 93.4783,180.985 95.3116,181.152 97,183.5C 100.93,179 105.764,175.667 111.5,173.5C 114.548,175.393 117.714,175.726 121,174.5C 123.272,175.982 125.772,176.982 128.5,177.5C 132.644,174.524 136.644,171.357 140.5,168C 143.714,166.169 146.881,166.336 150,168.5C 152.381,167.565 154.881,167.232 157.5,167.5C 157.48,169.143 158.147,170.476 159.5,171.5C 158.757,172.182 158.091,172.849 157.5,173.5C 157.178,175.722 157.845,177.556 159.5,179C 162.817,179.498 166.15,179.665 169.5,179.5C 170.5,179.5 171.5,179.5 172.5,179.5C 172.5,176.833 172.5,174.167 172.5,171.5C 175.43,170.145 178.43,169.645 181.5,170C 178.785,169.125 177.452,167.292 177.5,164.5C 182.128,164.535 186.295,165.869 190,168.5C 191.726,176.873 188.559,183.039 180.5,187C 176.675,187.022 173.675,188.522 171.5,191.5 Z"/></g>
<g><path style="opacity:1" fill="#f6e1d6" d="M 157.5,173.5 C 162.167,173.5 166.833,173.5 171.5,173.5C 171.747,175.858 171.081,177.858 169.5,179.5C 166.15,179.665 162.817,179.498 159.5,179C 157.845,177.556 157.178,175.722 157.5,173.5 Z"/></g>
<g><path style="opacity:1" fill="#76826a" d="M 234.5,176.5 C 235.036,179.698 234.369,182.365 232.5,184.5C 231.964,181.302 232.631,178.635 234.5,176.5 Z"/></g>
<g><path style="opacity:1" fill="#d7a063" d="M 203.5,168.5 C 202.962,170.117 202.629,171.784 202.5,173.5C 200.744,175.249 199.411,177.249 198.5,179.5C 193.716,182.608 188.716,185.275 183.5,187.5C 187.46,184.553 191.46,181.553 195.5,178.5C 198.628,175.389 201.295,172.056 203.5,168.5 Z"/></g>
<g><path style="opacity:1" fill="#959e7a" d="M 12.5,178.5 C 12.7828,179.289 13.2828,179.956 14,180.5C 14.147,185.974 14.9804,191.307 16.5,196.5C 12.4204,193.675 10.4204,189.675 10.5,184.5C 10.5391,182.048 11.2057,180.048 12.5,178.5 Z"/></g>
<g><path style="opacity:1" fill="#d6c05e" d="M 55.5,165.5 C 56.4725,167.139 57.8058,168.473 59.5,169.5C 61.5435,171.208 63.2101,173.208 64.5,175.5C 69.1201,183.141 75.4534,188.474 83.5,191.5C 87.4359,194.935 91.7692,197.768 96.5,200C 107.585,202.787 118.752,204.621 130,205.5C 135.187,205.34 140.354,205.007 145.5,204.5C 140.49,206.677 135.156,208.01 129.5,208.5C 128.5,208.5 127.5,208.5 126.5,208.5C 118.913,207.035 111.246,206.035 103.5,205.5C 97.0392,201.834 90.0392,199.001 82.5,197C 79.6745,193.88 76.3411,191.38 72.5,189.5C 69.3976,187.223 67.2309,184.223 66,180.5C 64.8289,179.107 63.3289,178.273 61.5,178C 60.0229,176.188 58.6896,174.355 57.5,172.5C 56.8333,170.167 56.1667,167.833 55.5,165.5 Z"/></g>
<g><path style="opacity:1" fill="#d69467" d="M 64.5,175.5 C 67.117,176.786 69.4504,178.453 71.5,180.5C 71.4142,181.496 71.7476,182.329 72.5,183C 74.2182,183.346 75.8849,183.846 77.5,184.5C 79.5341,186.863 81.5341,189.196 83.5,191.5C 75.4534,188.474 69.1201,183.141 64.5,175.5 Z"/></g>
<g><path style="opacity:1" fill="#a4c836" d="M 225.5,145.5 C 227.477,151.821 229.81,158.154 232.5,164.5C 228.918,173.829 226.752,183.496 226,193.5C 225.392,195.066 224.558,196.4 223.5,197.5C 222.842,198.398 222.176,199.398 221.5,200.5C 219.386,201.034 217.552,202.034 216,203.5C 214.493,202.465 212.993,202.632 211.5,204C 211.833,204.333 212.167,204.667 212.5,205C 210.094,205.306 207.927,206.139 206,207.5C 201.888,206.411 197.721,205.578 193.5,205C 194.108,204.13 194.941,203.63 196,203.5C 197.465,204.33 198.965,204.496 200.5,204C 201.315,202.057 202.315,200.057 203.5,198C 208.756,195.407 213.756,192.407 218.5,189C 217.446,187.612 217.28,186.112 218,184.5C 220.228,181.516 221.728,178.182 222.5,174.5C 221.21,169.216 220.21,163.883 219.5,158.5C 220.051,155.944 221.051,153.611 222.5,151.5C 221.873,150.583 221.539,149.583 221.5,148.5C 222.833,147.5 224.167,146.5 225.5,145.5 Z"/></g>
<g><path style="opacity:1" fill="#44513c" d="M 232.5,194.5 C 232.843,196.483 232.176,197.817 230.5,198.5C 230.157,196.517 230.824,195.183 232.5,194.5 Z"/></g>
<g><path style="opacity:1" fill="#a1c435" d="M 12.5,155.5 C 13.9313,156.78 14.5979,158.447 14.5,160.5C 16.4835,160.383 18.1502,161.05 19.5,162.5C 18.5524,167.435 18.219,172.435 18.5,177.5C 21.418,178.417 23.418,180.417 24.5,183.5C 25.916,181.861 27.5826,181.027 29.5,181C 29.88,183.326 30.88,185.159 32.5,186.5C 32.6682,188.776 33.0015,191.109 33.5,193.5C 36.4404,194.304 39.1071,195.637 41.5,197.5C 42.086,197.291 42.586,196.957 43,196.5C 47,197.833 51,199.167 55,200.5C 56.6667,200.167 58.3333,199.833 60,199.5C 62.0195,201.447 63.5195,203.78 64.5,206.5C 66.1836,207.15 67.5169,208.15 68.5,209.5C 65.979,209.56 63.6457,208.894 61.5,207.5C 59.1667,207.833 58.8333,208.833 60.5,210.5C 62.7582,211.799 65.0916,212.799 67.5,213.5C 68.8253,217.488 70.1587,221.488 71.5,225.5C 69.7162,225.107 68.0495,224.441 66.5,223.5C 66.1667,223.5 65.8333,223.5 65.5,223.5C 64.538,220.74 62.538,219.406 59.5,219.5C 55.5298,220.554 51.5298,221.054 47.5,221C 43.8972,218.902 41.2305,216.068 39.5,212.5C 39.5,210.5 39.5,208.5 39.5,206.5C 39.4506,203.901 38.4506,201.734 36.5,200C 33.4411,199.355 30.4411,198.522 27.5,197.5C 24.9334,194.638 21.9334,192.305 18.5,190.5C 17.6972,182.549 17.1972,174.549 17,166.5C 16.4391,163.71 15.1058,161.377 13,159.5C 12.51,158.207 12.3433,156.873 12.5,155.5 Z"/></g>
<g><path style="opacity:1" fill="#d5df5d" d="M 46.5,149.5 C 46.3379,151.527 46.5045,153.527 47,155.5C 49.6315,159.044 51.1315,163.044 51.5,167.5C 53.7146,168.956 55.7146,170.622 57.5,172.5C 58.6896,174.355 60.0229,176.188 61.5,178C 63.3289,178.273 64.8289,179.107 66,180.5C 67.2309,184.223 69.3976,187.223 72.5,189.5C 76.3411,191.38 79.6745,193.88 82.5,197C 90.0392,199.001 97.0392,201.834 103.5,205.5C 103.44,206.043 103.107,206.376 102.5,206.5C 96.2926,204.912 89.9592,204.079 83.5,204C 84.1667,203.667 84.8333,203.333 85.5,203C 82.8333,202.667 80.1667,202.333 77.5,202C 75.642,200.018 73.3087,198.852 70.5,198.5C 69.5,201.167 68.5,201.167 67.5,198.5C 68.3636,196.803 69.6969,195.637 71.5,195C 70.552,194.517 69.552,194.351 68.5,194.5C 68.9049,188.738 66.2382,186.238 60.5,187C 58.3985,185.267 58.0652,183.267 59.5,181C 53.2523,177.795 50.2523,179.629 50.5,186.5C 48.4086,186.682 46.4086,186.348 44.5,185.5C 42.4228,186.988 41.4228,188.988 41.5,191.5C 38.9162,189.422 36.4162,187.088 34,184.5C 33.4459,181.342 32.9459,178.175 32.5,175C 33.9766,169.562 34.9766,164.062 35.5,158.5C 36.1535,163.071 36.4868,167.738 36.5,172.5C 36.5142,174.593 35.8476,176.426 34.5,178C 36.0127,180.023 37.3461,179.856 38.5,177.5C 40.4414,179.316 41.1081,181.316 40.5,183.5C 41.3081,183.192 41.9747,182.692 42.5,182C 41.4829,180.951 41.3162,179.784 42,178.5C 42.3333,178.833 42.6667,179.167 43,179.5C 44.5843,178.139 46.4176,177.472 48.5,177.5C 48.665,174.15 48.4983,170.817 48,167.5C 44.3389,162.489 42.5055,156.822 42.5,150.5C 43.0983,149.205 43.5983,147.872 44,146.5C 44.2355,148.119 45.0689,149.119 46.5,149.5 Z"/></g>
<g><path style="opacity:1" fill="#df7660" d="M 171.5,191.5 C 169.147,193.343 166.48,194.677 163.5,195.5C 157.161,196.698 151.328,199.031 146,202.5C 139,203.167 132,203.833 125,204.5C 119.98,202.951 114.814,202.117 109.5,202C 107.568,200.541 105.568,199.375 103.5,198.5C 108.501,198.25 113.501,197.917 118.5,197.5C 121.371,197.618 124.038,198.284 126.5,199.5C 127.803,198.282 128.803,198.615 129.5,200.5C 131.001,199.248 132.668,198.248 134.5,197.5C 140.847,199.373 146.514,198.206 151.5,194C 158.274,193.801 164.941,192.967 171.5,191.5 Z"/></g>
<g><path style="opacity:1" fill="#a3c233" d="M 218.5,120.5 C 219.828,121.507 220.828,122.84 221.5,124.5C 220.167,130.22 218.834,135.887 217.5,141.5C 218.01,144.334 219.344,146.668 221.5,148.5C 221.539,149.583 221.873,150.583 222.5,151.5C 221.051,153.611 220.051,155.944 219.5,158.5C 220.21,163.883 221.21,169.216 222.5,174.5C 221.728,178.182 220.228,181.516 218,184.5C 217.28,186.112 217.446,187.612 218.5,189C 213.756,192.407 208.756,195.407 203.5,198C 202.315,200.057 201.315,202.057 200.5,204C 198.965,204.496 197.465,204.33 196,203.5C 194.941,203.63 194.108,204.13 193.5,205C 197.721,205.578 201.888,206.411 206,207.5C 207.927,206.139 210.094,205.306 212.5,205C 212.167,204.667 211.833,204.333 211.5,204C 212.993,202.632 214.493,202.465 216,203.5C 217.552,202.034 219.386,201.034 221.5,200.5C 222.176,199.398 222.842,198.398 223.5,197.5C 223.5,198.833 223.5,200.167 223.5,201.5C 222.84,204.649 220.84,206.149 217.5,206C 215.933,208.741 213.599,209.908 210.5,209.5C 206.486,209.334 202.486,209.501 198.5,210C 192.046,214.613 185.713,219.447 179.5,224.5C 175.252,224.975 171.252,225.975 167.5,227.5C 167.662,225.473 167.495,223.473 167,221.5C 163.782,220.319 161.282,218.319 159.5,215.5C 157.058,216.994 154.391,217.994 151.5,218.5C 147.095,226.3 140.428,229.967 131.5,229.5C 123.606,229.424 117.273,226.258 112.5,220C 108.181,219.24 103.848,218.573 99.5,218C 96.8759,214.541 93.5425,212.041 89.5,210.5C 84.1746,213.363 78.5079,214.196 72.5,213C 71.2899,211.961 70.2899,210.794 69.5,209.5C 69.5,208.833 69.5,208.167 69.5,207.5C 71.705,209.693 74.3717,211.026 77.5,211.5C 82.4483,210.007 87.4483,209.174 92.5,209C 96.0745,210.632 99.4078,212.632 102.5,215C 104.909,215.935 107.409,216.435 110,216.5C 114.111,215.428 118.278,214.262 122.5,213C 124.041,211.629 125.375,210.129 126.5,208.5C 127.5,208.5 128.5,208.5 129.5,208.5C 129.611,209.117 129.944,209.617 130.5,210C 128.333,211.5 126.167,213 124,214.5C 123.517,215.448 123.351,216.448 123.5,217.5C 125.429,217.231 127.095,217.731 128.5,219C 132.5,219.667 136.5,219.667 140.5,219C 144.174,214.993 148.174,211.326 152.5,208C 156.867,207.389 160.867,208.389 164.5,211C 167.5,211.667 170.5,211.667 173.5,211C 176.295,207.448 178.628,203.615 180.5,199.5C 181.5,199 182.5,198.5 183.5,198C 188.833,197.667 194.167,197.333 199.5,197C 202.647,195.657 205.314,193.823 207.5,191.5C 209.679,191.16 211.512,190.16 213,188.5C 213.901,185.929 215.234,183.596 217,181.5C 218.001,167.663 217.501,153.996 215.5,140.5C 216.918,133.985 217.918,127.318 218.5,120.5 Z"/></g>
<g><path style="opacity:1" fill="#cf844b" d="M 83.5,191.5 C 85.1992,191.34 86.8659,191.506 88.5,192C 92.532,196.348 97.532,198.515 103.5,198.5C 105.568,199.375 107.568,200.541 109.5,202C 114.814,202.117 119.98,202.951 125,204.5C 132,203.833 139,203.167 146,202.5C 151.328,199.031 157.161,196.698 163.5,195.5C 157.538,198.801 151.538,201.801 145.5,204.5C 140.354,205.007 135.187,205.34 130,205.5C 118.752,204.621 107.585,202.787 96.5,200C 91.7692,197.768 87.4359,194.935 83.5,191.5 Z"/></g>
<g><path style="opacity:1" fill="#d6c060" d="M 198.5,179.5 C 198.5,180.167 198.5,180.833 198.5,181.5C 191.482,187.332 183.482,191.499 174.5,194C 173.167,194.667 173.167,195.333 174.5,196C 169.85,197.331 165.183,198.665 160.5,200C 156.473,204.197 151.473,205.697 145.5,204.5C 151.538,201.801 157.538,198.801 163.5,195.5C 166.48,194.677 169.147,193.343 171.5,191.5C 175.5,190.167 179.5,188.833 183.5,187.5C 188.716,185.275 193.716,182.608 198.5,179.5 Z"/></g>
<g><path style="opacity:1" fill="#d4e05f" d="M 207.5,191.5 C 205.314,193.823 202.647,195.657 199.5,197C 194.167,197.333 188.833,197.667 183.5,198C 182.5,198.5 181.5,199 180.5,199.5C 178.628,203.615 176.295,207.448 173.5,211C 170.5,211.667 167.5,211.667 164.5,211C 160.867,208.389 156.867,207.389 152.5,208C 148.174,211.326 144.174,214.993 140.5,219C 136.5,219.667 132.5,219.667 128.5,219C 127.095,217.731 125.429,217.231 123.5,217.5C 123.351,216.448 123.517,215.448 124,214.5C 126.167,213 128.333,211.5 130.5,210C 129.944,209.617 129.611,209.117 129.5,208.5C 135.156,208.01 140.49,206.677 145.5,204.5C 151.473,205.697 156.473,204.197 160.5,200C 165.183,198.665 169.85,197.331 174.5,196C 173.167,195.333 173.167,194.667 174.5,194C 183.482,191.499 191.482,187.332 198.5,181.5C 200.1,180.748 201.6,179.748 203,178.5C 203.333,181.167 203.667,183.833 204,186.5C 205.852,187.695 207.019,189.362 207.5,191.5 Z"/></g>
<g><path style="opacity:1" fill="#d6e061" d="M 103.5,205.5 C 111.246,206.035 118.913,207.035 126.5,208.5C 125.375,210.129 124.041,211.629 122.5,213C 118.278,214.262 114.111,215.428 110,216.5C 107.409,216.435 104.909,215.935 102.5,215C 99.4078,212.632 96.0745,210.632 92.5,209C 87.4483,209.174 82.4483,210.007 77.5,211.5C 74.3717,211.026 71.705,209.693 69.5,207.5C 67.4004,202.232 63.7338,198.399 58.5,196C 53.4671,195.829 48.4671,195.329 43.5,194.5C 42.3881,193.735 41.7214,192.735 41.5,191.5C 41.4228,188.988 42.4228,186.988 44.5,185.5C 46.4086,186.348 48.4086,186.682 50.5,186.5C 50.2523,179.629 53.2523,177.795 59.5,181C 58.0652,183.267 58.3985,185.267 60.5,187C 66.2382,186.238 68.9049,188.738 68.5,194.5C 69.552,194.351 70.552,194.517 71.5,195C 69.6969,195.637 68.3636,196.803 67.5,198.5C 68.5,201.167 69.5,201.167 70.5,198.5C 73.3087,198.852 75.642,200.018 77.5,202C 80.1667,202.333 82.8333,202.667 85.5,203C 84.8333,203.333 84.1667,203.667 83.5,204C 89.9592,204.079 96.2926,204.912 102.5,206.5C 103.107,206.376 103.44,206.043 103.5,205.5 Z"/></g>
<g><path style="opacity:1" fill="#33332f" d="M 36.5,216.5 C 37.1667,216.5 37.8333,216.5 38.5,216.5C 38.5,216.833 38.5,217.167 38.5,217.5C 38.5,218.5 38.5,219.5 38.5,220.5C 36.8235,219.817 36.1568,218.483 36.5,216.5 Z"/></g>
<g><path style="opacity:1" fill="#b3c288" d="M 230.5,145.5 C 231.167,146.5 231.833,147.5 232.5,148.5C 232.5,149.167 232.5,149.833 232.5,150.5C 232.643,153.097 233.477,155.431 235,157.5C 235.667,161.833 235.667,166.167 235,170.5C 233.232,171.682 233.065,173.015 234.5,174.5C 234.5,175.167 234.5,175.833 234.5,176.5C 232.631,178.635 231.964,181.302 232.5,184.5C 232.5,187.833 232.5,191.167 232.5,194.5C 230.824,195.183 230.157,196.517 230.5,198.5C 227.478,205.852 222.145,210.852 214.5,213.5C 208.349,214.191 202.349,215.525 196.5,217.5C 195.388,218.265 194.721,219.265 194.5,220.5C 190.231,222.318 185.897,223.985 181.5,225.5C 186.463,221.546 191.463,217.546 196.5,213.5C 201.068,211.365 205.734,210.031 210.5,209.5C 213.599,209.908 215.933,208.741 217.5,206C 220.84,206.149 222.84,204.649 223.5,201.5C 225.335,200.878 226.502,199.544 227,197.5C 229.002,186.008 231.502,174.675 234.5,163.5C 233.136,158.429 231.469,153.429 229.5,148.5C 229.52,147.274 229.853,146.274 230.5,145.5 Z"/></g>
<g><path style="opacity:1" fill="#9ab050" d="M 39.5,212.5 C 41.2305,216.068 43.8972,218.902 47.5,221C 51.5298,221.054 55.5298,220.554 59.5,219.5C 62.538,219.406 64.538,220.74 65.5,223.5C 64.209,223.263 63.209,223.596 62.5,224.5C 62.1667,224.5 61.8333,224.5 61.5,224.5C 61.5,223.5 61.5,222.5 61.5,221.5C 56.6061,222.811 51.6061,223.477 46.5,223.5C 44.3902,220.719 41.7235,218.719 38.5,217.5C 38.5,217.167 38.5,216.833 38.5,216.5C 39.2341,215.292 39.5674,213.959 39.5,212.5 Z"/></g>
<g><path style="opacity:1" fill="#4c4b3e" d="M 208.5,218.5 C 209.693,218.97 210.36,219.97 210.5,221.5C 210.36,223.03 209.693,224.03 208.5,224.5C 208.5,222.5 208.5,220.5 208.5,218.5 Z"/></g>
<g><path style="opacity:1" fill="#2a2a26" d="M 38.5,220.5 C 39.8333,220.5 40.5,221.167 40.5,222.5C 40.5,221.167 39.8333,220.5 38.5,220.5 Z"/></g>
<g><path style="opacity:1" fill="#969e72" d="M 38.5,217.5 C 41.7235,218.719 44.3902,220.719 46.5,223.5C 46.5,224.5 46.5,225.5 46.5,226.5C 43.4461,226.646 41.4461,225.313 40.5,222.5C 40.5,221.167 39.8333,220.5 38.5,220.5C 38.5,219.5 38.5,218.5 38.5,217.5 Z"/></g>
<g><path style="opacity:1" fill="#b9d741" d="M 68.5,209.5 C 68.8333,209.5 69.1667,209.5 69.5,209.5C 70.2899,210.794 71.2899,211.961 72.5,213C 78.5079,214.196 84.1746,213.363 89.5,210.5C 93.5425,212.041 96.8759,214.541 99.5,218C 103.848,218.573 108.181,219.24 112.5,220C 117.273,226.258 123.606,229.424 131.5,229.5C 131.423,230.75 130.756,231.583 129.5,232C 126.824,232.74 124.158,233.073 121.5,233C 120.167,231 118.833,229 117.5,227C 116.451,226.508 115.451,226.674 114.5,227.5C 113.41,226.273 112.076,225.44 110.5,225C 110.833,224.667 111.167,224.333 111.5,224C 109.776,223.552 109.109,222.718 109.5,221.5C 108.218,223.179 107.218,225.013 106.5,227C 103.025,227.447 99.6915,228.28 96.5,229.5C 96.3433,230.873 96.51,232.207 97,233.5C 98.9045,234.158 100.405,235.325 101.5,237C 103.167,237.333 104.833,237.667 106.5,238C 108.836,240.833 111.836,242 115.5,241.5C 112.024,242.643 108.358,242.81 104.5,242C 105.459,239.31 104.792,238.976 102.5,241C 100.833,241.667 99.1667,241.667 97.5,241C 93.874,237.022 90.5406,232.689 87.5,228C 82.5,227.667 77.5,227.333 72.5,227C 71.944,226.617 71.6107,226.117 71.5,225.5C 70.1587,221.488 68.8253,217.488 67.5,213.5C 65.0916,212.799 62.7582,211.799 60.5,210.5C 58.8333,208.833 59.1667,207.833 61.5,207.5C 63.6457,208.894 65.979,209.56 68.5,209.5 Z"/></g>
<g><path style="opacity:1" fill="#c9d2a5" d="M 61.5,224.5 C 56.6786,226.135 51.6786,226.802 46.5,226.5C 46.5,225.5 46.5,224.5 46.5,223.5C 51.6061,223.477 56.6061,222.811 61.5,221.5C 61.5,222.5 61.5,223.5 61.5,224.5 Z"/></g>
<g><path style="opacity:1" fill="#bcd843" d="M 167.5,227.5 C 166.833,230.167 166.167,232.833 165.5,235.5C 162.037,237.272 158.37,238.605 154.5,239.5C 148.874,239.515 143.874,237.848 139.5,234.5C 134.869,233.338 130.202,233.172 125.5,234C 121.703,235.975 118.37,238.475 115.5,241.5C 111.836,242 108.836,240.833 106.5,238C 104.833,237.667 103.167,237.333 101.5,237C 100.405,235.325 98.9045,234.158 97,233.5C 96.51,232.207 96.3433,230.873 96.5,229.5C 99.6915,228.28 103.025,227.447 106.5,227C 107.218,225.013 108.218,223.179 109.5,221.5C 109.109,222.718 109.776,223.552 111.5,224C 111.167,224.333 110.833,224.667 110.5,225C 112.076,225.44 113.41,226.273 114.5,227.5C 115.451,226.674 116.451,226.508 117.5,227C 118.833,229 120.167,231 121.5,233C 124.158,233.073 126.824,232.74 129.5,232C 130.756,231.583 131.423,230.75 131.5,229.5C 140.428,229.967 147.095,226.3 151.5,218.5C 154.391,217.994 157.058,216.994 159.5,215.5C 161.282,218.319 163.782,220.319 167,221.5C 167.495,223.473 167.662,225.473 167.5,227.5 Z"/></g>
<g><path style="opacity:1" fill="#bbc59c" d="M 208.5,218.5 C 208.5,220.5 208.5,222.5 208.5,224.5C 208.279,225.735 207.612,226.735 206.5,227.5C 202.716,229.447 198.716,230.78 194.5,231.5C 192.995,232.842 192.328,234.508 192.5,236.5C 189.657,236.917 186.99,237.917 184.5,239.5C 181.232,240.487 177.898,240.82 174.5,240.5C 173.833,238.181 173.666,235.847 174,233.5C 176.63,233.141 178.797,232.141 180.5,230.5C 177.753,230.187 175.086,230.52 172.5,231.5C 170.58,234.339 168.913,237.339 167.5,240.5C 165.821,242.104 163.821,242.771 161.5,242.5C 161.5,241.5 161.5,240.5 161.5,239.5C 163.264,238.674 164.598,237.341 165.5,235.5C 167.192,233.486 168.525,231.152 169.5,228.5C 173.111,227.738 176.778,227.238 180.5,227C 181.056,226.617 181.389,226.117 181.5,225.5C 185.897,223.985 190.231,222.318 194.5,220.5C 195.735,220.721 196.735,221.388 197.5,222.5C 200.389,219.189 204.055,217.856 208.5,218.5 Z M 180.5,230.5 C 180.62,229.414 181.287,228.747 182.5,228.5C 183.167,228.833 183.833,229.167 184.5,229.5C 183.311,230.429 181.978,230.762 180.5,230.5 Z"/></g>
<g><path style="opacity:1" fill="#a9be5c" d="M 210.5,209.5 C 205.734,210.031 201.068,211.365 196.5,213.5C 191.463,217.546 186.463,221.546 181.5,225.5C 181.389,226.117 181.056,226.617 180.5,227C 176.778,227.238 173.111,227.738 169.5,228.5C 168.525,231.152 167.192,233.486 165.5,235.5C 166.167,232.833 166.833,230.167 167.5,227.5C 171.252,225.975 175.252,224.975 179.5,224.5C 185.713,219.447 192.046,214.613 198.5,210C 202.486,209.501 206.486,209.334 210.5,209.5 Z"/></g>
<g><path style="opacity:1" fill="#4d513b" d="M 72.5,232.5 C 76.9707,231.911 80.9707,232.577 84.5,234.5C 80.0293,235.089 76.0293,234.423 72.5,232.5 Z"/></g>
<g><path style="opacity:1" fill="#adc357" d="M 66.5,223.5 C 68.0495,224.441 69.7162,225.107 71.5,225.5C 71.6107,226.117 71.944,226.617 72.5,227C 77.5,227.333 82.5,227.667 87.5,228C 90.5406,232.689 93.874,237.022 97.5,241C 99.1667,241.667 100.833,241.667 102.5,241C 104.792,238.976 105.459,239.31 104.5,242C 108.358,242.81 112.024,242.643 115.5,241.5C 118.37,238.475 121.703,235.975 125.5,234C 130.202,233.172 134.869,233.338 139.5,234.5C 143.874,237.848 148.874,239.515 154.5,239.5C 158.37,238.605 162.037,237.272 165.5,235.5C 164.598,237.341 163.264,238.674 161.5,239.5C 159.277,240.702 156.777,241.369 154,241.5C 146.551,240.179 139.384,238.179 132.5,235.5C 130.833,235.667 129.167,235.833 127.5,236C 116.982,247.338 105.315,248.505 92.5,239.5C 91.0787,236.991 89.4121,234.657 87.5,232.5C 82.8333,231.833 78.1667,231.167 73.5,230.5C 72.5276,228.364 70.8609,227.197 68.5,227C 67.1772,226.184 66.5106,225.017 66.5,223.5 Z"/></g>
<g><path style="opacity:1" fill="#c5d19a" d="M 65.5,223.5 C 65.8333,223.5 66.1667,223.5 66.5,223.5C 66.5106,225.017 67.1772,226.184 68.5,227C 70.8609,227.197 72.5276,228.364 73.5,230.5C 78.1667,231.167 82.8333,231.833 87.5,232.5C 89.4121,234.657 91.0787,236.991 92.5,239.5C 105.315,248.505 116.982,247.338 127.5,236C 129.167,235.833 130.833,235.667 132.5,235.5C 139.384,238.179 146.551,240.179 154,241.5C 156.777,241.369 159.277,240.702 161.5,239.5C 161.5,240.5 161.5,241.5 161.5,242.5C 160.778,243.551 159.778,244.218 158.5,244.5C 155.833,244.5 153.167,244.5 150.5,244.5C 149.167,244.5 147.833,244.5 146.5,244.5C 146.5,243.167 145.833,242.5 144.5,242.5C 140.142,241.382 135.808,240.048 131.5,238.5C 127.188,241.47 122.854,244.47 118.5,247.5C 111.833,248.833 105.167,248.833 98.5,247.5C 96.4469,246.473 94.4469,245.473 92.5,244.5C 92.5,243.167 91.8333,242.5 90.5,242.5C 88.5,239.833 86.5,237.167 84.5,234.5C 80.9707,232.577 76.9707,231.911 72.5,232.5C 70.1345,230.491 67.4678,228.824 64.5,227.5C 63.3881,226.735 62.7214,225.735 62.5,224.5C 63.209,223.596 64.209,223.263 65.5,223.5 Z"/></g>
<g><path style="opacity:1" fill="#323232" d="M 144.5,242.5 C 145.833,242.5 146.5,243.167 146.5,244.5C 145.167,244.5 144.5,243.833 144.5,242.5 Z"/></g>
<g><path style="opacity:1" fill="#30332c" d="M 90.5,242.5 C 91.8333,242.5 92.5,243.167 92.5,244.5C 91.1667,244.5 90.5,243.833 90.5,242.5 Z"/></g>
<g><path style="opacity:1" fill="#5b5d52" d="M 150.5,244.5 C 153.167,244.5 155.833,244.5 158.5,244.5C 157.666,245.748 156.333,246.415 154.5,246.5C 152.667,246.415 151.334,245.748 150.5,244.5 Z"/></g>
</svg>
